<svg viewBox="-16 -32 880 192" width="880" height="192" xmlns="http://www.w3.org/2000/svg"><desc>Generated with https://github.com/Platane/snk</desc><style>:root{--cb:#1b1f230a;--cs:#ffc71f;--ce:#2b3137;--c0:#2b3137;--c1:#1e4f36;--c2:#194d33;--c3:#237a37;--c4:#26a641}.c{shape-rendering:geometricPrecision;fill:var(--ce);stroke-width:1px;stroke:var(--cb);animation:none 30500ms linear infinite;width:12px;height:12px}@keyframes c0{1.96%{fill:var(--c1)}1.98%,100%{fill:var(--ce)}}.c.c0{fill:var(--c1);animation-name:c0}@keyframes c1{88.19%{fill:var(--c3)}88.21%,100%{fill:var(--ce)}}.c.c1{fill:var(--c3);animation-name:c1}@keyframes c2{88.51%{fill:var(--c3)}88.53%,100%{fill:var(--ce)}}.c.c2{fill:var(--c3);animation-name:c2}@keyframes c3{88.84%{fill:var(--c3)}88.86%,100%{fill:var(--ce)}}.c.c3{fill:var(--c3);animation-name:c3}@keyframes c4{13.1%{fill:var(--c1)}13.12%,100%{fill:var(--ce)}}.c.c4{fill:var(--c1);animation-name:c4}@keyframes c5{90.81%{fill:var(--c3)}90.83%,100%{fill:var(--ce)}}.c.c5{fill:var(--c3);animation-name:c5}@keyframes c6{96.38%{fill:var(--c4)}96.4%,100%{fill:var(--ce)}}.c.c6{fill:var(--c4);animation-name:c6}@keyframes c7{12.12%{fill:var(--c1)}12.14%,100%{fill:var(--ce)}}.c.c7{fill:var(--c1);animation-name:c7}@keyframes c8{52.12%{fill:var(--c2)}52.14%,100%{fill:var(--ce)}}.c.c8{fill:var(--c2);animation-name:c8}@keyframes c9{3.27%{fill:var(--c1)}3.29%,100%{fill:var(--ce)}}.c.c9{fill:var(--c1);animation-name:c9}@keyframes ca{9.83%{fill:var(--c1)}9.85%,100%{fill:var(--ce)}}.c.ca{fill:var(--c1);animation-name:ca}@keyframes cb{3.92%{fill:var(--c1)}3.94%,100%{fill:var(--ce)}}.c.cb{fill:var(--c1);animation-name:cb}@keyframes cc{10.48%{fill:var(--c1)}10.5%,100%{fill:var(--ce)}}.c.cc{fill:var(--c1);animation-name:cc}@keyframes cd{11.47%{fill:var(--c1)}11.49%,100%{fill:var(--ce)}}.c.cd{fill:var(--c1);animation-name:cd}@keyframes ce{51.14%{fill:var(--c2)}51.16%,100%{fill:var(--ce)}}.c.ce{fill:var(--c2);animation-name:ce}@keyframes cf{50.15%{fill:var(--c1)}50.17%,100%{fill:var(--ce)}}.c.cf{fill:var(--c1);animation-name:cf}@keyframes cg{86.55%{fill:var(--c3)}86.57%,100%{fill:var(--ce)}}.c.cg{fill:var(--c3);animation-name:cg}@keyframes ch{10.81%{fill:var(--c1)}10.83%,100%{fill:var(--ce)}}.c.ch{fill:var(--c1);animation-name:ch}@keyframes ci{11.14%{fill:var(--c1)}11.16%,100%{fill:var(--ce)}}.c.ci{fill:var(--c1);animation-name:ci}@keyframes cj{56.06%{fill:var(--c2)}56.08%,100%{fill:var(--ce)}}.c.cj{fill:var(--c2);animation-name:cj}@keyframes ck{92.45%{fill:var(--c4)}92.47%,100%{fill:var(--ce)}}.c.ck{fill:var(--c4);animation-name:ck}@keyframes cl{50.81%{fill:var(--c1)}50.83%,100%{fill:var(--ce)}}.c.cl{fill:var(--c1);animation-name:cl}@keyframes cm{50.48%{fill:var(--c2)}50.5%,100%{fill:var(--ce)}}.c.cm{fill:var(--c2);animation-name:cm}@keyframes cn{48.19%{fill:var(--c1)}48.21%,100%{fill:var(--ce)}}.c.cn{fill:var(--c1);animation-name:cn}@keyframes co{48.51%{fill:var(--c2)}48.53%,100%{fill:var(--ce)}}.c.co{fill:var(--c2);animation-name:co}@keyframes cp{94.74%{fill:var(--c4)}94.76%,100%{fill:var(--ce)}}.c.cp{fill:var(--c4);animation-name:cp}@keyframes cq{85.24%{fill:var(--c3)}85.26%,100%{fill:var(--ce)}}.c.cq{fill:var(--c3);animation-name:cq}@keyframes cr{92.78%{fill:var(--c4)}92.8%,100%{fill:var(--ce)}}.c.cr{fill:var(--c4);animation-name:cr}@keyframes cs{54.09%{fill:var(--c2)}54.11%,100%{fill:var(--ce)}}.c.cs{fill:var(--c2);animation-name:cs}@keyframes ct{6.22%{fill:var(--c1)}6.24%,100%{fill:var(--ce)}}.c.ct{fill:var(--c1);animation-name:ct}@keyframes cu{63.92%{fill:var(--c2)}63.94%,100%{fill:var(--ce)}}.c.cu{fill:var(--c2);animation-name:cu}@keyframes cv{66.22%{fill:var(--c2)}66.24%,100%{fill:var(--ce)}}.c.cv{fill:var(--c2);animation-name:cv}@keyframes cw{29.17%{fill:var(--c1)}29.19%,100%{fill:var(--ce)}}.c.cw{fill:var(--c1);animation-name:cw}@keyframes cx{66.55%{fill:var(--c2)}66.57%,100%{fill:var(--ce)}}.c.cx{fill:var(--c2);animation-name:cx}@keyframes cy{25.89%{fill:var(--c1)}25.91%,100%{fill:var(--ce)}}.c.cy{fill:var(--c1);animation-name:cy}@keyframes cz{27.86%{fill:var(--c1)}27.88%,100%{fill:var(--ce)}}.c.cz{fill:var(--c1);animation-name:cz}@keyframes c10{27.2%{fill:var(--c1)}27.22%,100%{fill:var(--ce)}}.c.c10{fill:var(--c1);animation-name:c10}@keyframes c11{68.19%{fill:var(--c2)}68.21%,100%{fill:var(--ce)}}.c.c11{fill:var(--c2);animation-name:c11}@keyframes c12{24.58%{fill:var(--c1)}24.6%,100%{fill:var(--ce)}}.c.c12{fill:var(--c1);animation-name:c12}@keyframes c13{24.25%{fill:var(--c1)}24.27%,100%{fill:var(--ce)}}.c.c13{fill:var(--c1);animation-name:c13}@keyframes c14{73.1%{fill:var(--c2)}73.12%,100%{fill:var(--ce)}}.c.c14{fill:var(--c2);animation-name:c14}@keyframes c15{35.4%{fill:var(--c1)}35.42%,100%{fill:var(--ce)}}.c.c15{fill:var(--c1);animation-name:c15}.u{transform-origin:0 0;transform:scale(0,1);animation:none linear 30500ms infinite}@keyframes u0{1.96%{transform:scale(0.000,1)}1.98%,3.27%{transform:scale(0.053,1)}3.29%,3.92%{transform:scale(0.105,1)}3.94%,6.22%{transform:scale(0.158,1)}6.24%,9.83%{transform:scale(0.211,1)}9.85%,10.48%{transform:scale(0.263,1)}10.5%,10.81%{transform:scale(0.316,1)}10.83%,11.14%{transform:scale(0.368,1)}11.16%,11.47%{transform:scale(0.421,1)}11.49%,12.12%{transform:scale(0.474,1)}12.14%,13.1%{transform:scale(0.526,1)}13.12%,24.25%{transform:scale(0.579,1)}24.27%,24.58%{transform:scale(0.632,1)}24.6%,25.89%{transform:scale(0.684,1)}25.91%,27.2%{transform:scale(0.737,1)}27.22%,27.86%{transform:scale(0.789,1)}27.88%,29.17%{transform:scale(0.842,1)}29.19%,35.4%{transform:scale(0.895,1)}35.42%,48.19%{transform:scale(0.947,1)}48.21%,100%{transform:scale(1.000,1)}}.u.u0{fill:var(--c1);animation-name:u0;transform-origin:0.0px 0}@keyframes u1{48.51%{transform:scale(0.000,1)}48.53%,100%{transform:scale(1.000,1)}}.u.u1{fill:var(--c2);animation-name:u1;transform-origin:383.6px 0}@keyframes u2{50.15%{transform:scale(0.000,1)}50.17%,100%{transform:scale(1.000,1)}}.u.u2{fill:var(--c1);animation-name:u2;transform-origin:403.8px 0}@keyframes u3{50.48%{transform:scale(0.000,1)}50.5%,100%{transform:scale(1.000,1)}}.u.u3{fill:var(--c2);animation-name:u3;transform-origin:424.0px 0}@keyframes u4{50.81%{transform:scale(0.000,1)}50.83%,100%{transform:scale(1.000,1)}}.u.u4{fill:var(--c1);animation-name:u4;transform-origin:444.2px 0}@keyframes u5{51.14%{transform:scale(0.000,1)}51.16%,52.12%{transform:scale(0.111,1)}52.14%,54.09%{transform:scale(0.222,1)}54.11%,56.06%{transform:scale(0.333,1)}56.08%,63.92%{transform:scale(0.444,1)}63.94%,66.22%{transform:scale(0.556,1)}66.24%,66.55%{transform:scale(0.667,1)}66.57%,68.19%{transform:scale(0.778,1)}68.21%,73.1%{transform:scale(0.889,1)}73.12%,100%{transform:scale(1.000,1)}}.u.u5{fill:var(--c2);animation-name:u5;transform-origin:464.4px 0}@keyframes u6{85.24%{transform:scale(0.000,1)}85.26%,86.55%{transform:scale(0.167,1)}86.57%,88.19%{transform:scale(0.333,1)}88.21%,88.51%{transform:scale(0.500,1)}88.53%,88.84%{transform:scale(0.667,1)}88.86%,90.81%{transform:scale(0.833,1)}90.83%,100%{transform:scale(1.000,1)}}.u.u6{fill:var(--c3);animation-name:u6;transform-origin:646.1px 0}@keyframes u7{92.45%{transform:scale(0.000,1)}92.47%,92.78%{transform:scale(0.250,1)}92.8%,94.74%{transform:scale(0.500,1)}94.76%,96.38%{transform:scale(0.750,1)}96.4%,100%{transform:scale(1.000,1)}}.u.u7{fill:var(--c4);animation-name:u7;transform-origin:767.2px 0}.s{shape-rendering:geometricPrecision;fill:var(--cs);animation:none linear 30500ms infinite}@keyframes s0{0%,99.67%{transform:translate(0px,-16px)}0.33%{transform:translate(0px,0px)}1.31%{transform:translate(48px,0px)}1.97%{transform:translate(48px,32px)}2.95%{transform:translate(96px,32px)}3.28%,9.18%,52.46%{transform:translate(96px,16px)}3.61%,8.85%{transform:translate(112px,16px)}3.93%{transform:translate(112px,0px)}4.26%,51.48%{transform:translate(128px,0px)}4.59%{transform:translate(128px,-16px)}5.9%{transform:translate(192px,-16px)}6.23%{transform:translate(192px,0px)}6.56%{transform:translate(176px,0px)}6.89%{transform:translate(176px,-16px)}8.2%{transform:translate(112px,-16px)}9.84%{transform:translate(96px,48px)}10.16%{transform:translate(112px,48px)}10.49%,49.18%{transform:translate(112px,64px)}10.82%,55.41%,95.41%{transform:translate(128px,64px)}11.15%,95.08%{transform:translate(128px,80px)}12.46%,89.18%{transform:translate(64px,80px)}12.79%{transform:translate(64px,96px)}13.11%{transform:translate(48px,96px)}13.44%{transform:translate(48px,112px)}23.93%{transform:translate(560px,112px)}25.25%{transform:translate(560px,48px)}25.9%{transform:translate(528px,48px)}26.23%{transform:translate(528px,32px)}26.56%,30.49%{transform:translate(544px,32px)}26.89%{transform:translate(544px,16px)}27.21%{transform:translate(560px,16px)}27.54%,67.54%{transform:translate(560px,0px)}28.2%{transform:translate(528px,0px)}28.52%{transform:translate(528px,16px)}29.18%{transform:translate(496px,16px)}29.51%{transform:translate(496px,32px)}30.82%{transform:translate(544px,48px)}35.08%{transform:translate(752px,48px)}35.41%{transform:translate(752px,64px)}47.54%{transform:translate(160px,64px)}47.87%{transform:translate(160px,48px)}48.2%{transform:translate(144px,48px)}48.52%,55.08%{transform:translate(144px,64px)}49.84%{transform:translate(112px,32px)}50.49%,54.43%{transform:translate(144px,32px)}50.82%,93.44%{transform:translate(144px,16px)}51.15%{transform:translate(128px,16px)}52.13%{transform:translate(96px,0px)}53.77%,93.11%{transform:translate(160px,16px)}54.1%{transform:translate(160px,32px)}56.39%{transform:translate(128px,112px)}63.61%{transform:translate(480px,112px)}63.93%{transform:translate(480px,96px)}64.26%{transform:translate(496px,96px)}66.23%{transform:translate(496px,0px)}68.2%{transform:translate(560px,32px)}71.8%{transform:translate(736px,32px)}73.11%{transform:translate(736px,96px)}85.57%{transform:translate(128px,96px)}86.56%{transform:translate(128px,48px)}88.2%{transform:translate(48px,48px)}88.85%{transform:translate(48px,80px)}90.82%{transform:translate(64px,0px)}92.79%{transform:translate(160px,0px)}94.75%{transform:translate(144px,80px)}96.39%{transform:translate(80px,64px)}97.05%{transform:translate(80px,32px)}97.38%{transform:translate(64px,32px)}97.7%{transform:translate(64px,16px)}98.03%{transform:translate(48px,16px)}98.69%{transform:translate(48px,-16px)}}.s.s0{transform:translate(0px,-16px);animation-name:s0}@keyframes s1{0%,99.67%{transform:translate(16px,-16px)}0.33%{transform:translate(0px,-16px)}0.66%{transform:translate(0px,0px)}1.64%{transform:translate(48px,0px)}2.3%{transform:translate(48px,32px)}3.28%{transform:translate(96px,32px)}3.61%,9.51%,52.79%{transform:translate(96px,16px)}3.93%,9.18%{transform:translate(112px,16px)}4.26%{transform:translate(112px,0px)}4.59%,51.8%{transform:translate(128px,0px)}4.92%{transform:translate(128px,-16px)}6.23%{transform:translate(192px,-16px)}6.56%{transform:translate(192px,0px)}6.89%{transform:translate(176px,0px)}7.21%{transform:translate(176px,-16px)}8.52%{transform:translate(112px,-16px)}10.16%{transform:translate(96px,48px)}10.49%{transform:translate(112px,48px)}10.82%,49.51%{transform:translate(112px,64px)}11.15%,55.74%,95.74%{transform:translate(128px,64px)}11.48%,95.41%{transform:translate(128px,80px)}12.79%,89.51%{transform:translate(64px,80px)}13.11%{transform:translate(64px,96px)}13.44%{transform:translate(48px,96px)}13.77%{transform:translate(48px,112px)}24.26%{transform:translate(560px,112px)}25.57%{transform:translate(560px,48px)}26.23%{transform:translate(528px,48px)}26.56%{transform:translate(528px,32px)}26.89%,30.82%{transform:translate(544px,32px)}27.21%{transform:translate(544px,16px)}27.54%{transform:translate(560px,16px)}27.87%,67.87%{transform:translate(560px,0px)}28.52%{transform:translate(528px,0px)}28.85%{transform:translate(528px,16px)}29.51%{transform:translate(496px,16px)}29.84%{transform:translate(496px,32px)}31.15%{transform:translate(544px,48px)}35.41%{transform:translate(752px,48px)}35.74%{transform:translate(752px,64px)}47.87%{transform:translate(160px,64px)}48.2%{transform:translate(160px,48px)}48.52%{transform:translate(144px,48px)}48.85%,55.41%{transform:translate(144px,64px)}50.16%{transform:translate(112px,32px)}50.82%,54.75%{transform:translate(144px,32px)}51.15%,93.77%{transform:translate(144px,16px)}51.48%{transform:translate(128px,16px)}52.46%{transform:translate(96px,0px)}54.1%,93.44%{transform:translate(160px,16px)}54.43%{transform:translate(160px,32px)}56.72%{transform:translate(128px,112px)}63.93%{transform:translate(480px,112px)}64.26%{transform:translate(480px,96px)}64.59%{transform:translate(496px,96px)}66.56%{transform:translate(496px,0px)}68.52%{transform:translate(560px,32px)}72.13%{transform:translate(736px,32px)}73.44%{transform:translate(736px,96px)}85.9%{transform:translate(128px,96px)}86.89%{transform:translate(128px,48px)}88.52%{transform:translate(48px,48px)}89.18%{transform:translate(48px,80px)}91.15%{transform:translate(64px,0px)}93.11%{transform:translate(160px,0px)}95.08%{transform:translate(144px,80px)}96.72%{transform:translate(80px,64px)}97.38%{transform:translate(80px,32px)}97.7%{transform:translate(64px,32px)}98.03%{transform:translate(64px,16px)}98.36%{transform:translate(48px,16px)}99.02%{transform:translate(48px,-16px)}}.s.s1{transform:translate(16px,-16px);animation-name:s1}@keyframes s2{0%,99.67%{transform:translate(32px,-16px)}0.66%{transform:translate(0px,-16px)}0.98%{transform:translate(0px,0px)}1.97%{transform:translate(48px,0px)}2.62%{transform:translate(48px,32px)}3.61%{transform:translate(96px,32px)}3.93%,9.84%,53.11%{transform:translate(96px,16px)}4.26%,9.51%{transform:translate(112px,16px)}4.59%{transform:translate(112px,0px)}4.92%,52.13%{transform:translate(128px,0px)}5.25%{transform:translate(128px,-16px)}6.56%{transform:translate(192px,-16px)}6.89%{transform:translate(192px,0px)}7.21%{transform:translate(176px,0px)}7.54%{transform:translate(176px,-16px)}8.85%{transform:translate(112px,-16px)}10.49%{transform:translate(96px,48px)}10.82%{transform:translate(112px,48px)}11.15%,49.84%{transform:translate(112px,64px)}11.48%,56.07%,96.07%{transform:translate(128px,64px)}11.8%,95.74%{transform:translate(128px,80px)}13.11%,89.84%{transform:translate(64px,80px)}13.44%{transform:translate(64px,96px)}13.77%{transform:translate(48px,96px)}14.1%{transform:translate(48px,112px)}24.59%{transform:translate(560px,112px)}25.9%{transform:translate(560px,48px)}26.56%{transform:translate(528px,48px)}26.89%{transform:translate(528px,32px)}27.21%,31.15%{transform:translate(544px,32px)}27.54%{transform:translate(544px,16px)}27.87%{transform:translate(560px,16px)}28.2%,68.2%{transform:translate(560px,0px)}28.85%{transform:translate(528px,0px)}29.18%{transform:translate(528px,16px)}29.84%{transform:translate(496px,16px)}30.16%{transform:translate(496px,32px)}31.48%{transform:translate(544px,48px)}35.74%{transform:translate(752px,48px)}36.07%{transform:translate(752px,64px)}48.2%{transform:translate(160px,64px)}48.52%{transform:translate(160px,48px)}48.85%{transform:translate(144px,48px)}49.18%,55.74%{transform:translate(144px,64px)}50.49%{transform:translate(112px,32px)}51.15%,55.08%{transform:translate(144px,32px)}51.48%,94.1%{transform:translate(144px,16px)}51.8%{transform:translate(128px,16px)}52.79%{transform:translate(96px,0px)}54.43%,93.77%{transform:translate(160px,16px)}54.75%{transform:translate(160px,32px)}57.05%{transform:translate(128px,112px)}64.26%{transform:translate(480px,112px)}64.59%{transform:translate(480px,96px)}64.92%{transform:translate(496px,96px)}66.89%{transform:translate(496px,0px)}68.85%{transform:translate(560px,32px)}72.46%{transform:translate(736px,32px)}73.77%{transform:translate(736px,96px)}86.23%{transform:translate(128px,96px)}87.21%{transform:translate(128px,48px)}88.85%{transform:translate(48px,48px)}89.51%{transform:translate(48px,80px)}91.48%{transform:translate(64px,0px)}93.44%{transform:translate(160px,0px)}95.41%{transform:translate(144px,80px)}97.05%{transform:translate(80px,64px)}97.7%{transform:translate(80px,32px)}98.03%{transform:translate(64px,32px)}98.36%{transform:translate(64px,16px)}98.69%{transform:translate(48px,16px)}99.34%{transform:translate(48px,-16px)}}.s.s2{transform:translate(32px,-16px);animation-name:s2}@keyframes s3{0%,99.67%{transform:translate(48px,-16px)}0.98%{transform:translate(0px,-16px)}1.31%{transform:translate(0px,0px)}2.3%{transform:translate(48px,0px)}2.95%{transform:translate(48px,32px)}3.93%{transform:translate(96px,32px)}4.26%,10.16%,53.44%{transform:translate(96px,16px)}4.59%,9.84%{transform:translate(112px,16px)}4.92%{transform:translate(112px,0px)}5.25%,52.46%{transform:translate(128px,0px)}5.57%{transform:translate(128px,-16px)}6.89%{transform:translate(192px,-16px)}7.21%{transform:translate(192px,0px)}7.54%{transform:translate(176px,0px)}7.87%{transform:translate(176px,-16px)}9.18%{transform:translate(112px,-16px)}10.82%{transform:translate(96px,48px)}11.15%{transform:translate(112px,48px)}11.48%,50.16%{transform:translate(112px,64px)}11.8%,56.39%,96.39%{transform:translate(128px,64px)}12.13%,96.07%{transform:translate(128px,80px)}13.44%,90.16%{transform:translate(64px,80px)}13.77%{transform:translate(64px,96px)}14.1%{transform:translate(48px,96px)}14.43%{transform:translate(48px,112px)}24.92%{transform:translate(560px,112px)}26.23%{transform:translate(560px,48px)}26.89%{transform:translate(528px,48px)}27.21%{transform:translate(528px,32px)}27.54%,31.48%{transform:translate(544px,32px)}27.87%{transform:translate(544px,16px)}28.2%{transform:translate(560px,16px)}28.52%,68.52%{transform:translate(560px,0px)}29.18%{transform:translate(528px,0px)}29.51%{transform:translate(528px,16px)}30.16%{transform:translate(496px,16px)}30.49%{transform:translate(496px,32px)}31.8%{transform:translate(544px,48px)}36.07%{transform:translate(752px,48px)}36.39%{transform:translate(752px,64px)}48.52%{transform:translate(160px,64px)}48.85%{transform:translate(160px,48px)}49.18%{transform:translate(144px,48px)}49.51%,56.07%{transform:translate(144px,64px)}50.82%{transform:translate(112px,32px)}51.48%,55.41%{transform:translate(144px,32px)}51.8%,94.43%{transform:translate(144px,16px)}52.13%{transform:translate(128px,16px)}53.11%{transform:translate(96px,0px)}54.75%,94.1%{transform:translate(160px,16px)}55.08%{transform:translate(160px,32px)}57.38%{transform:translate(128px,112px)}64.59%{transform:translate(480px,112px)}64.92%{transform:translate(480px,96px)}65.25%{transform:translate(496px,96px)}67.21%{transform:translate(496px,0px)}69.18%{transform:translate(560px,32px)}72.79%{transform:translate(736px,32px)}74.1%{transform:translate(736px,96px)}86.56%{transform:translate(128px,96px)}87.54%{transform:translate(128px,48px)}89.18%{transform:translate(48px,48px)}89.84%{transform:translate(48px,80px)}91.8%{transform:translate(64px,0px)}93.77%{transform:translate(160px,0px)}95.74%{transform:translate(144px,80px)}97.38%{transform:translate(80px,64px)}98.03%{transform:translate(80px,32px)}98.36%{transform:translate(64px,32px)}98.69%{transform:translate(64px,16px)}99.02%{transform:translate(48px,16px)}}.s.s3{transform:translate(48px,-16px);animation-name:s3}</style><rect class="c" x="2" y="2" rx="2" ry="2"/><rect class="c" x="2" y="18" rx="2" ry="2"/><rect class="c" x="2" y="34" rx="2" ry="2"/><rect class="c" x="2" y="50" rx="2" ry="2"/><rect class="c" x="2" y="66" rx="2" ry="2"/><rect class="c" x="2" y="82" rx="2" ry="2"/><rect class="c" x="2" y="98" rx="2" ry="2"/><rect class="c" x="18" y="2" rx="2" ry="2"/><rect class="c" x="18" y="18" rx="2" ry="2"/><rect class="c" x="18" y="34" rx="2" ry="2"/><rect class="c" x="18" y="50" rx="2" ry="2"/><rect class="c" x="18" y="66" rx="2" ry="2"/><rect class="c" x="18" y="82" rx="2" ry="2"/><rect class="c" x="18" y="98" rx="2" ry="2"/><rect class="c" x="34" y="2" rx="2" ry="2"/><rect class="c" x="34" y="18" rx="2" ry="2"/><rect class="c" x="34" y="34" rx="2" ry="2"/><rect class="c" x="34" y="50" rx="2" ry="2"/><rect class="c" x="34" y="66" rx="2" ry="2"/><rect class="c" x="34" y="82" rx="2" ry="2"/><rect class="c" x="34" y="98" rx="2" ry="2"/><rect class="c" x="50" y="2" rx="2" ry="2"/><rect class="c" x="50" y="18" rx="2" ry="2"/><rect class="c c0" x="50" y="34" rx="2" ry="2"/><rect class="c c1" x="50" y="50" rx="2" ry="2"/><rect class="c c2" x="50" y="66" rx="2" ry="2"/><rect class="c c3" x="50" y="82" rx="2" ry="2"/><rect class="c c4" x="50" y="98" rx="2" ry="2"/><rect class="c c5" x="66" y="2" rx="2" ry="2"/><rect class="c" x="66" y="18" rx="2" ry="2"/><rect class="c" x="66" y="34" rx="2" ry="2"/><rect class="c" x="66" y="50" rx="2" ry="2"/><rect class="c" x="66" y="66" rx="2" ry="2"/><rect class="c" x="66" y="82" rx="2" ry="2"/><rect class="c" x="66" y="98" rx="2" ry="2"/><rect class="c" x="82" y="2" rx="2" ry="2"/><rect class="c" x="82" y="18" rx="2" ry="2"/><rect class="c" x="82" y="34" rx="2" ry="2"/><rect class="c" x="82" y="50" rx="2" ry="2"/><rect class="c c6" x="82" y="66" rx="2" ry="2"/><rect class="c c7" x="82" y="82" rx="2" ry="2"/><rect class="c" x="82" y="98" rx="2" ry="2"/><rect class="c c8" x="98" y="2" rx="2" ry="2"/><rect class="c c9" x="98" y="18" rx="2" ry="2"/><rect class="c" x="98" y="34" rx="2" ry="2"/><rect class="c ca" x="98" y="50" rx="2" ry="2"/><rect class="c" x="98" y="66" rx="2" ry="2"/><rect class="c" x="98" y="82" rx="2" ry="2"/><rect class="c" x="98" y="98" rx="2" ry="2"/><rect class="c cb" x="114" y="2" rx="2" ry="2"/><rect class="c" x="114" y="18" rx="2" ry="2"/><rect class="c" x="114" y="34" rx="2" ry="2"/><rect class="c" x="114" y="50" rx="2" ry="2"/><rect class="c cc" x="114" y="66" rx="2" ry="2"/><rect class="c cd" x="114" y="82" rx="2" ry="2"/><rect class="c" x="114" y="98" rx="2" ry="2"/><rect class="c" x="130" y="2" rx="2" ry="2"/><rect class="c ce" x="130" y="18" rx="2" ry="2"/><rect class="c cf" x="130" y="34" rx="2" ry="2"/><rect class="c cg" x="130" y="50" rx="2" ry="2"/><rect class="c ch" x="130" y="66" rx="2" ry="2"/><rect class="c ci" x="130" y="82" rx="2" ry="2"/><rect class="c cj" x="130" y="98" rx="2" ry="2"/><rect class="c ck" x="146" y="2" rx="2" ry="2"/><rect class="c cl" x="146" y="18" rx="2" ry="2"/><rect class="c cm" x="146" y="34" rx="2" ry="2"/><rect class="c cn" x="146" y="50" rx="2" ry="2"/><rect class="c co" x="146" y="66" rx="2" ry="2"/><rect class="c cp" x="146" y="82" rx="2" ry="2"/><rect class="c cq" x="146" y="98" rx="2" ry="2"/><rect class="c cr" x="162" y="2" rx="2" ry="2"/><rect class="c" x="162" y="18" rx="2" ry="2"/><rect class="c cs" x="162" y="34" rx="2" ry="2"/><rect class="c" x="162" y="50" rx="2" ry="2"/><rect class="c" x="162" y="66" rx="2" ry="2"/><rect class="c" x="162" y="82" rx="2" ry="2"/><rect class="c" x="162" y="98" rx="2" ry="2"/><rect class="c" x="178" y="2" rx="2" ry="2"/><rect class="c" x="178" y="18" rx="2" ry="2"/><rect class="c" x="178" y="34" rx="2" ry="2"/><rect class="c" x="178" y="50" rx="2" ry="2"/><rect class="c" x="178" y="66" rx="2" ry="2"/><rect class="c" x="178" y="82" rx="2" ry="2"/><rect class="c" x="178" y="98" rx="2" ry="2"/><rect class="c ct" x="194" y="2" rx="2" ry="2"/><rect class="c" x="194" y="18" rx="2" ry="2"/><rect class="c" x="194" y="34" rx="2" ry="2"/><rect class="c" x="194" y="50" rx="2" ry="2"/><rect class="c" x="194" y="66" rx="2" ry="2"/><rect class="c" x="194" y="82" rx="2" ry="2"/><rect class="c" x="194" y="98" rx="2" ry="2"/><rect class="c" x="210" y="2" rx="2" ry="2"/><rect class="c" x="210" y="18" rx="2" ry="2"/><rect class="c" x="210" y="34" rx="2" ry="2"/><rect class="c" x="210" y="50" rx="2" ry="2"/><rect class="c" x="210" y="66" rx="2" ry="2"/><rect class="c" x="210" y="82" rx="2" ry="2"/><rect class="c" x="210" y="98" rx="2" ry="2"/><rect class="c" x="226" y="2" rx="2" ry="2"/><rect class="c" x="226" y="18" rx="2" ry="2"/><rect class="c" x="226" y="34" rx="2" ry="2"/><rect class="c" x="226" y="50" rx="2" ry="2"/><rect class="c" x="226" y="66" rx="2" ry="2"/><rect class="c" x="226" y="82" rx="2" ry="2"/><rect class="c" x="226" y="98" rx="2" ry="2"/><rect class="c" x="242" y="2" rx="2" ry="2"/><rect class="c" x="242" y="18" rx="2" ry="2"/><rect class="c" x="242" y="34" rx="2" ry="2"/><rect class="c" x="242" y="50" rx="2" ry="2"/><rect class="c" x="242" y="66" rx="2" ry="2"/><rect class="c" x="242" y="82" rx="2" ry="2"/><rect class="c" x="242" y="98" rx="2" ry="2"/><rect class="c" x="258" y="2" rx="2" ry="2"/><rect class="c" x="258" y="18" rx="2" ry="2"/><rect class="c" x="258" y="34" rx="2" ry="2"/><rect class="c" x="258" y="50" rx="2" ry="2"/><rect class="c" x="258" y="66" rx="2" ry="2"/><rect class="c" x="258" y="82" rx="2" ry="2"/><rect class="c" x="258" y="98" rx="2" ry="2"/><rect class="c" x="274" y="2" rx="2" ry="2"/><rect class="c" x="274" y="18" rx="2" ry="2"/><rect class="c" x="274" y="34" rx="2" ry="2"/><rect class="c" x="274" y="50" rx="2" ry="2"/><rect class="c" x="274" y="66" rx="2" ry="2"/><rect class="c" x="274" y="82" rx="2" ry="2"/><rect class="c" x="274" y="98" rx="2" ry="2"/><rect class="c" x="290" y="2" rx="2" ry="2"/><rect class="c" x="290" y="18" rx="2" ry="2"/><rect class="c" x="290" y="34" rx="2" ry="2"/><rect class="c" x="290" y="50" rx="2" ry="2"/><rect class="c" x="290" y="66" rx="2" ry="2"/><rect class="c" x="290" y="82" rx="2" ry="2"/><rect class="c" x="290" y="98" rx="2" ry="2"/><rect class="c" x="306" y="2" rx="2" ry="2"/><rect class="c" x="306" y="18" rx="2" ry="2"/><rect class="c" x="306" y="34" rx="2" ry="2"/><rect class="c" x="306" y="50" rx="2" ry="2"/><rect class="c" x="306" y="66" rx="2" ry="2"/><rect class="c" x="306" y="82" rx="2" ry="2"/><rect class="c" x="306" y="98" rx="2" ry="2"/><rect class="c" x="322" y="2" rx="2" ry="2"/><rect class="c" x="322" y="18" rx="2" ry="2"/><rect class="c" x="322" y="34" rx="2" ry="2"/><rect class="c" x="322" y="50" rx="2" ry="2"/><rect class="c" x="322" y="66" rx="2" ry="2"/><rect class="c" x="322" y="82" rx="2" ry="2"/><rect class="c" x="322" y="98" rx="2" ry="2"/><rect class="c" x="338" y="2" rx="2" ry="2"/><rect class="c" x="338" y="18" rx="2" ry="2"/><rect class="c" x="338" y="34" rx="2" ry="2"/><rect class="c" x="338" y="50" rx="2" ry="2"/><rect class="c" x="338" y="66" rx="2" ry="2"/><rect class="c" x="338" y="82" rx="2" ry="2"/><rect class="c" x="338" y="98" rx="2" ry="2"/><rect class="c" x="354" y="2" rx="2" ry="2"/><rect class="c" x="354" y="18" rx="2" ry="2"/><rect class="c" x="354" y="34" rx="2" ry="2"/><rect class="c" x="354" y="50" rx="2" ry="2"/><rect class="c" x="354" y="66" rx="2" ry="2"/><rect class="c" x="354" y="82" rx="2" ry="2"/><rect class="c" x="354" y="98" rx="2" ry="2"/><rect class="c" x="370" y="2" rx="2" ry="2"/><rect class="c" x="370" y="18" rx="2" ry="2"/><rect class="c" x="370" y="34" rx="2" ry="2"/><rect class="c" x="370" y="50" rx="2" ry="2"/><rect class="c" x="370" y="66" rx="2" ry="2"/><rect class="c" x="370" y="82" rx="2" ry="2"/><rect class="c" x="370" y="98" rx="2" ry="2"/><rect class="c" x="386" y="2" rx="2" ry="2"/><rect class="c" x="386" y="18" rx="2" ry="2"/><rect class="c" x="386" y="34" rx="2" ry="2"/><rect class="c" x="386" y="50" rx="2" ry="2"/><rect class="c" x="386" y="66" rx="2" ry="2"/><rect class="c" x="386" y="82" rx="2" ry="2"/><rect class="c" x="386" y="98" rx="2" ry="2"/><rect class="c" x="402" y="2" rx="2" ry="2"/><rect class="c" x="402" y="18" rx="2" ry="2"/><rect class="c" x="402" y="34" rx="2" ry="2"/><rect class="c" x="402" y="50" rx="2" ry="2"/><rect class="c" x="402" y="66" rx="2" ry="2"/><rect class="c" x="402" y="82" rx="2" ry="2"/><rect class="c" x="402" y="98" rx="2" ry="2"/><rect class="c" x="418" y="2" rx="2" ry="2"/><rect class="c" x="418" y="18" rx="2" ry="2"/><rect class="c" x="418" y="34" rx="2" ry="2"/><rect class="c" x="418" y="50" rx="2" ry="2"/><rect class="c" x="418" y="66" rx="2" ry="2"/><rect class="c" x="418" y="82" rx="2" ry="2"/><rect class="c" x="418" y="98" rx="2" ry="2"/><rect class="c" x="434" y="2" rx="2" ry="2"/><rect class="c" x="434" y="18" rx="2" ry="2"/><rect class="c" x="434" y="34" rx="2" ry="2"/><rect class="c" x="434" y="50" rx="2" ry="2"/><rect class="c" x="434" y="66" rx="2" ry="2"/><rect class="c" x="434" y="82" rx="2" ry="2"/><rect class="c" x="434" y="98" rx="2" ry="2"/><rect class="c" x="450" y="2" rx="2" ry="2"/><rect class="c" x="450" y="18" rx="2" ry="2"/><rect class="c" x="450" y="34" rx="2" ry="2"/><rect class="c" x="450" y="50" rx="2" ry="2"/><rect class="c" x="450" y="66" rx="2" ry="2"/><rect class="c" x="450" y="82" rx="2" ry="2"/><rect class="c" x="450" y="98" rx="2" ry="2"/><rect class="c" x="466" y="2" rx="2" ry="2"/><rect class="c" x="466" y="18" rx="2" ry="2"/><rect class="c" x="466" y="34" rx="2" ry="2"/><rect class="c" x="466" y="50" rx="2" ry="2"/><rect class="c" x="466" y="66" rx="2" ry="2"/><rect class="c" x="466" y="82" rx="2" ry="2"/><rect class="c" x="466" y="98" rx="2" ry="2"/><rect class="c" x="482" y="2" rx="2" ry="2"/><rect class="c" x="482" y="18" rx="2" ry="2"/><rect class="c" x="482" y="34" rx="2" ry="2"/><rect class="c" x="482" y="50" rx="2" ry="2"/><rect class="c" x="482" y="66" rx="2" ry="2"/><rect class="c" x="482" y="82" rx="2" ry="2"/><rect class="c cu" x="482" y="98" rx="2" ry="2"/><rect class="c cv" x="498" y="2" rx="2" ry="2"/><rect class="c cw" x="498" y="18" rx="2" ry="2"/><rect class="c" x="498" y="34" rx="2" ry="2"/><rect class="c" x="498" y="50" rx="2" ry="2"/><rect class="c" x="498" y="66" rx="2" ry="2"/><rect class="c" x="498" y="82" rx="2" ry="2"/><rect class="c" x="498" y="98" rx="2" ry="2"/><rect class="c cx" x="514" y="2" rx="2" ry="2"/><rect class="c" x="514" y="18" rx="2" ry="2"/><rect class="c" x="514" y="34" rx="2" ry="2"/><rect class="c" x="514" y="50" rx="2" ry="2"/><rect class="c" x="514" y="66" rx="2" ry="2"/><rect class="c" x="514" y="82" rx="2" ry="2"/><rect class="c" x="514" y="98" rx="2" ry="2"/><rect class="c" x="530" y="2" rx="2" ry="2"/><rect class="c" x="530" y="18" rx="2" ry="2"/><rect class="c" x="530" y="34" rx="2" ry="2"/><rect class="c cy" x="530" y="50" rx="2" ry="2"/><rect class="c" x="530" y="66" rx="2" ry="2"/><rect class="c" x="530" y="82" rx="2" ry="2"/><rect class="c" x="530" y="98" rx="2" ry="2"/><rect class="c cz" x="546" y="2" rx="2" ry="2"/><rect class="c" x="546" y="18" rx="2" ry="2"/><rect class="c" x="546" y="34" rx="2" ry="2"/><rect class="c" x="546" y="50" rx="2" ry="2"/><rect class="c" x="546" y="66" rx="2" ry="2"/><rect class="c" x="546" y="82" rx="2" ry="2"/><rect class="c" x="546" y="98" rx="2" ry="2"/><rect class="c" x="562" y="2" rx="2" ry="2"/><rect class="c c10" x="562" y="18" rx="2" ry="2"/><rect class="c c11" x="562" y="34" rx="2" ry="2"/><rect class="c" x="562" y="50" rx="2" ry="2"/><rect class="c" x="562" y="66" rx="2" ry="2"/><rect class="c c12" x="562" y="82" rx="2" ry="2"/><rect class="c c13" x="562" y="98" rx="2" ry="2"/><rect class="c" x="578" y="2" rx="2" ry="2"/><rect class="c" x="578" y="18" rx="2" ry="2"/><rect class="c" x="578" y="34" rx="2" ry="2"/><rect class="c" x="578" y="50" rx="2" ry="2"/><rect class="c" x="578" y="66" rx="2" ry="2"/><rect class="c" x="578" y="82" rx="2" ry="2"/><rect class="c" x="578" y="98" rx="2" ry="2"/><rect class="c" x="594" y="2" rx="2" ry="2"/><rect class="c" x="594" y="18" rx="2" ry="2"/><rect class="c" x="594" y="34" rx="2" ry="2"/><rect class="c" x="594" y="50" rx="2" ry="2"/><rect class="c" x="594" y="66" rx="2" ry="2"/><rect class="c" x="594" y="82" rx="2" ry="2"/><rect class="c" x="594" y="98" rx="2" ry="2"/><rect class="c" x="610" y="2" rx="2" ry="2"/><rect class="c" x="610" y="18" rx="2" ry="2"/><rect class="c" x="610" y="34" rx="2" ry="2"/><rect class="c" x="610" y="50" rx="2" ry="2"/><rect class="c" x="610" y="66" rx="2" ry="2"/><rect class="c" x="610" y="82" rx="2" ry="2"/><rect class="c" x="610" y="98" rx="2" ry="2"/><rect class="c" x="626" y="2" rx="2" ry="2"/><rect class="c" x="626" y="18" rx="2" ry="2"/><rect class="c" x="626" y="34" rx="2" ry="2"/><rect class="c" x="626" y="50" rx="2" ry="2"/><rect class="c" x="626" y="66" rx="2" ry="2"/><rect class="c" x="626" y="82" rx="2" ry="2"/><rect class="c" x="626" y="98" rx="2" ry="2"/><rect class="c" x="642" y="2" rx="2" ry="2"/><rect class="c" x="642" y="18" rx="2" ry="2"/><rect class="c" x="642" y="34" rx="2" ry="2"/><rect class="c" x="642" y="50" rx="2" ry="2"/><rect class="c" x="642" y="66" rx="2" ry="2"/><rect class="c" x="642" y="82" rx="2" ry="2"/><rect class="c" x="642" y="98" rx="2" ry="2"/><rect class="c" x="658" y="2" rx="2" ry="2"/><rect class="c" x="658" y="18" rx="2" ry="2"/><rect class="c" x="658" y="34" rx="2" ry="2"/><rect class="c" x="658" y="50" rx="2" ry="2"/><rect class="c" x="658" y="66" rx="2" ry="2"/><rect class="c" x="658" y="82" rx="2" ry="2"/><rect class="c" x="658" y="98" rx="2" ry="2"/><rect class="c" x="674" y="2" rx="2" ry="2"/><rect class="c" x="674" y="18" rx="2" ry="2"/><rect class="c" x="674" y="34" rx="2" ry="2"/><rect class="c" x="674" y="50" rx="2" ry="2"/><rect class="c" x="674" y="66" rx="2" ry="2"/><rect class="c" x="674" y="82" rx="2" ry="2"/><rect class="c" x="674" y="98" rx="2" ry="2"/><rect class="c" x="690" y="2" rx="2" ry="2"/><rect class="c" x="690" y="18" rx="2" ry="2"/><rect class="c" x="690" y="34" rx="2" ry="2"/><rect class="c" x="690" y="50" rx="2" ry="2"/><rect class="c" x="690" y="66" rx="2" ry="2"/><rect class="c" x="690" y="82" rx="2" ry="2"/><rect class="c" x="690" y="98" rx="2" ry="2"/><rect class="c" x="706" y="2" rx="2" ry="2"/><rect class="c" x="706" y="18" rx="2" ry="2"/><rect class="c" x="706" y="34" rx="2" ry="2"/><rect class="c" x="706" y="50" rx="2" ry="2"/><rect class="c" x="706" y="66" rx="2" ry="2"/><rect class="c" x="706" y="82" rx="2" ry="2"/><rect class="c" x="706" y="98" rx="2" ry="2"/><rect class="c" x="722" y="2" rx="2" ry="2"/><rect class="c" x="722" y="18" rx="2" ry="2"/><rect class="c" x="722" y="34" rx="2" ry="2"/><rect class="c" x="722" y="50" rx="2" ry="2"/><rect class="c" x="722" y="66" rx="2" ry="2"/><rect class="c" x="722" y="82" rx="2" ry="2"/><rect class="c" x="722" y="98" rx="2" ry="2"/><rect class="c" x="738" y="2" rx="2" ry="2"/><rect class="c" x="738" y="18" rx="2" ry="2"/><rect class="c" x="738" y="34" rx="2" ry="2"/><rect class="c" x="738" y="50" rx="2" ry="2"/><rect class="c" x="738" y="66" rx="2" ry="2"/><rect class="c" x="738" y="82" rx="2" ry="2"/><rect class="c c14" x="738" y="98" rx="2" ry="2"/><rect class="c" x="754" y="2" rx="2" ry="2"/><rect class="c" x="754" y="18" rx="2" ry="2"/><rect class="c" x="754" y="34" rx="2" ry="2"/><rect class="c" x="754" y="50" rx="2" ry="2"/><rect class="c c15" x="754" y="66" rx="2" ry="2"/><rect class="c" x="754" y="82" rx="2" ry="2"/><rect class="c" x="754" y="98" rx="2" ry="2"/><rect class="c" x="770" y="2" rx="2" ry="2"/><rect class="c" x="770" y="18" rx="2" ry="2"/><rect class="c" x="770" y="34" rx="2" ry="2"/><rect class="c" x="770" y="50" rx="2" ry="2"/><rect class="c" x="770" y="66" rx="2" ry="2"/><rect class="c" x="770" y="82" rx="2" ry="2"/><rect class="c" x="770" y="98" rx="2" ry="2"/><rect class="c" x="786" y="2" rx="2" ry="2"/><rect class="c" x="786" y="18" rx="2" ry="2"/><rect class="c" x="786" y="34" rx="2" ry="2"/><rect class="c" x="786" y="50" rx="2" ry="2"/><rect class="c" x="786" y="66" rx="2" ry="2"/><rect class="c" x="786" y="82" rx="2" ry="2"/><rect class="c" x="786" y="98" rx="2" ry="2"/><rect class="c" x="802" y="2" rx="2" ry="2"/><rect class="c" x="802" y="18" rx="2" ry="2"/><rect class="c" x="802" y="34" rx="2" ry="2"/><rect class="c" x="802" y="50" rx="2" ry="2"/><rect class="c" x="802" y="66" rx="2" ry="2"/><rect class="c" x="802" y="82" rx="2" ry="2"/><rect class="c" x="802" y="98" rx="2" ry="2"/><rect class="c" x="818" y="2" rx="2" ry="2"/><rect class="c" x="818" y="18" rx="2" ry="2"/><rect class="c" x="818" y="34" rx="2" ry="2"/><rect class="c" x="818" y="50" rx="2" ry="2"/><rect class="c" x="818" y="66" rx="2" ry="2"/><rect class="c" x="818" y="82" rx="2" ry="2"/><rect class="c" x="818" y="98" rx="2" ry="2"/><rect class="c" x="834" y="2" rx="2" ry="2"/><rect class="u u0" height="12" width="384.2" x="0.0" y="144"/><rect class="u u1" height="12" width="20.8" x="383.6" y="144"/><rect class="u u2" height="12" width="20.8" x="403.8" y="144"/><rect class="u u3" height="12" width="20.8" x="424.0" y="144"/><rect class="u u4" height="12" width="20.8" x="444.2" y="144"/><rect class="u u5" height="12" width="182.3" x="464.4" y="144"/><rect class="u u6" height="12" width="121.7" x="646.1" y="144"/><rect class="u u7" height="12" width="81.4" x="767.2" y="144"/><rect class="s s0" x="0.8" y="0.8" width="14.4" height="14.4" rx="4.5" ry="4.5"/><rect class="s s1" x="1.8" y="1.8" width="12.3" height="12.3" rx="4.1" ry="4.1"/><rect class="s s2" x="2.6" y="2.6" width="10.8" height="10.8" rx="3.6" ry="3.6"/><rect class="s s3" x="3.0" y="3.0" width="9.9" height="9.9" rx="3.3" ry="3.3"/></svg>