<svg viewBox="-16 -32 880 192" width="880" height="192" xmlns="http://www.w3.org/2000/svg"><desc>Generated with https://github.com/Platane/snk</desc><style>:root{--cb:#1b1f230a;--cs:#ffc71f;--ce:#2b3137;--c0:#2b3137;--c1:#1e4f36;--c2:#194d33;--c3:#237a37;--c4:#26a641}.c{shape-rendering:geometricPrecision;fill:var(--ce);stroke-width:1px;stroke:var(--cb);animation:none 37700ms linear infinite;width:12px;height:12px}@keyframes c0{2.91%{fill:var(--c1)}2.93%,100%{fill:var(--ce)}}.c.c0{fill:var(--c1);animation-name:c0}@keyframes c1{3.44%{fill:var(--c1)}3.46%,100%{fill:var(--ce)}}.c.c1{fill:var(--c1);animation-name:c1}@keyframes c2{1.85%{fill:var(--c1)}1.87%,100%{fill:var(--ce)}}.c.c2{fill:var(--c1);animation-name:c2}@keyframes c3{2.11%{fill:var(--c1)}2.13%,100%{fill:var(--ce)}}.c.c3{fill:var(--c1);animation-name:c3}@keyframes c4{4.76%{fill:var(--c1)}4.78%,100%{fill:var(--ce)}}.c.c4{fill:var(--c1);animation-name:c4}@keyframes c5{4.23%{fill:var(--c1)}4.25%,100%{fill:var(--ce)}}.c.c5{fill:var(--c1);animation-name:c5}@keyframes c6{5.3%{fill:var(--c1)}5.32%,100%{fill:var(--ce)}}.c.c6{fill:var(--c1);animation-name:c6}@keyframes c7{6.09%{fill:var(--c1)}6.11%,100%{fill:var(--ce)}}.c.c7{fill:var(--c1);animation-name:c7}@keyframes c8{6.62%{fill:var(--c1)}6.64%,100%{fill:var(--ce)}}.c.c8{fill:var(--c1);animation-name:c8}@keyframes c9{81.69%{fill:var(--c3)}81.71%,100%{fill:var(--ce)}}.c.c9{fill:var(--c3);animation-name:c9}@keyframes ca{54.9%{fill:var(--c2)}54.92%,100%{fill:var(--ce)}}.c.ca{fill:var(--c2);animation-name:ca}@keyframes cb{5.56%{fill:var(--c1)}5.58%,100%{fill:var(--ce)}}.c.cb{fill:var(--c1);animation-name:cb}@keyframes cc{85.4%{fill:var(--c4)}85.42%,100%{fill:var(--ce)}}.c.cc{fill:var(--c4);animation-name:cc}@keyframes cd{24.66%{fill:var(--c1)}24.68%,100%{fill:var(--ce)}}.c.cd{fill:var(--c1);animation-name:cd}@keyframes ce{9.01%{fill:var(--c1)}9.03%,100%{fill:var(--ce)}}.c.ce{fill:var(--c1);animation-name:ce}@keyframes cf{8.21%{fill:var(--c1)}8.23%,100%{fill:var(--ce)}}.c.cf{fill:var(--c1);animation-name:cf}@keyframes cg{84.07%{fill:var(--c3)}84.09%,100%{fill:var(--ce)}}.c.cg{fill:var(--c3);animation-name:cg}@keyframes ch{53.57%{fill:var(--c2)}53.59%,100%{fill:var(--ce)}}.c.ch{fill:var(--c2);animation-name:ch}@keyframes ci{9.27%{fill:var(--c1)}9.29%,100%{fill:var(--ce)}}.c.ci{fill:var(--c1);animation-name:ci}@keyframes cj{10.33%{fill:var(--c1)}10.35%,100%{fill:var(--ce)}}.c.cj{fill:var(--c1);animation-name:cj}@keyframes ck{22.54%{fill:var(--c1)}22.56%,100%{fill:var(--ce)}}.c.ck{fill:var(--c1);animation-name:ck}@keyframes cl{11.93%{fill:var(--c1)}11.95%,100%{fill:var(--ce)}}.c.cl{fill:var(--c1);animation-name:cl}@keyframes cm{76.38%{fill:var(--c3)}76.4%,100%{fill:var(--ce)}}.c.cm{fill:var(--c3);animation-name:cm}@keyframes cn{76.65%{fill:var(--c3)}76.67%,100%{fill:var(--ce)}}.c.cn{fill:var(--c3);animation-name:cn}@keyframes co{76.91%{fill:var(--c3)}76.93%,100%{fill:var(--ce)}}.c.co{fill:var(--c3);animation-name:co}@keyframes cp{20.94%{fill:var(--c1)}20.96%,100%{fill:var(--ce)}}.c.cp{fill:var(--c1);animation-name:cp}@keyframes cq{78.5%{fill:var(--c3)}78.52%,100%{fill:var(--ce)}}.c.cq{fill:var(--c3);animation-name:cq}@keyframes cr{88.85%{fill:var(--c4)}88.87%,100%{fill:var(--ce)}}.c.cr{fill:var(--c4);animation-name:cr}@keyframes cs{20.15%{fill:var(--c1)}20.17%,100%{fill:var(--ce)}}.c.cs{fill:var(--c1);animation-name:cs}@keyframes ct{45.61%{fill:var(--c2)}45.63%,100%{fill:var(--ce)}}.c.ct{fill:var(--c2);animation-name:ct}@keyframes cu{12.99%{fill:var(--c1)}13.01%,100%{fill:var(--ce)}}.c.cu{fill:var(--c1);animation-name:cu}@keyframes cv{18.29%{fill:var(--c1)}18.31%,100%{fill:var(--ce)}}.c.cv{fill:var(--c1);animation-name:cv}@keyframes cw{13.52%{fill:var(--c1)}13.54%,100%{fill:var(--ce)}}.c.cw{fill:var(--c1);animation-name:cw}@keyframes cx{18.82%{fill:var(--c1)}18.84%,100%{fill:var(--ce)}}.c.cx{fill:var(--c1);animation-name:cx}@keyframes cy{19.62%{fill:var(--c1)}19.64%,100%{fill:var(--ce)}}.c.cy{fill:var(--c1);animation-name:cy}@keyframes cz{44.82%{fill:var(--c2)}44.84%,100%{fill:var(--ce)}}.c.cz{fill:var(--c2);animation-name:cz}@keyframes c10{44.02%{fill:var(--c1)}44.04%,100%{fill:var(--ce)}}.c.c10{fill:var(--c1);animation-name:c10}@keyframes c11{75.06%{fill:var(--c3)}75.08%,100%{fill:var(--ce)}}.c.c11{fill:var(--c3);animation-name:c11}@keyframes c12{19.09%{fill:var(--c1)}19.11%,100%{fill:var(--ce)}}.c.c12{fill:var(--c1);animation-name:c12}@keyframes c13{19.35%{fill:var(--c1)}19.37%,100%{fill:var(--ce)}}.c.c13{fill:var(--c1);animation-name:c13}@keyframes c14{48.8%{fill:var(--c2)}48.82%,100%{fill:var(--ce)}}.c.c14{fill:var(--c2);animation-name:c14}@keyframes c15{92.03%{fill:var(--c4)}92.05%,100%{fill:var(--ce)}}.c.c15{fill:var(--c4);animation-name:c15}@keyframes c16{44.55%{fill:var(--c1)}44.57%,100%{fill:var(--ce)}}.c.c16{fill:var(--c1);animation-name:c16}@keyframes c17{44.29%{fill:var(--c2)}44.31%,100%{fill:var(--ce)}}.c.c17{fill:var(--c2);animation-name:c17}@keyframes c18{42.43%{fill:var(--c1)}42.45%,100%{fill:var(--ce)}}.c.c18{fill:var(--c1);animation-name:c18}@keyframes c19{42.7%{fill:var(--c2)}42.72%,100%{fill:var(--ce)}}.c.c19{fill:var(--c2);animation-name:c19}@keyframes c1a{90.18%{fill:var(--c4)}90.2%,100%{fill:var(--ce)}}.c.c1a{fill:var(--c4);animation-name:c1a}@keyframes c1b{74%{fill:var(--c3)}74.02%,100%{fill:var(--ce)}}.c.c1b{fill:var(--c3);animation-name:c1b}@keyframes c1c{91.77%{fill:var(--c4)}91.79%,100%{fill:var(--ce)}}.c.c1c{fill:var(--c4);animation-name:c1c}@keyframes c1d{47.2%{fill:var(--c2)}47.22%,100%{fill:var(--ce)}}.c.c1d{fill:var(--c2);animation-name:c1d}@keyframes c1e{15.37%{fill:var(--c1)}15.39%,100%{fill:var(--ce)}}.c.c1e{fill:var(--c1);animation-name:c1e}@keyframes c1f{68.43%{fill:var(--c2)}68.45%,100%{fill:var(--ce)}}.c.c1f{fill:var(--c2);animation-name:c1f}@keyframes c1g{66.04%{fill:var(--c2)}66.06%,100%{fill:var(--ce)}}.c.c1g{fill:var(--c2);animation-name:c1g}@keyframes c1h{35%{fill:var(--c1)}35.02%,100%{fill:var(--ce)}}.c.c1h{fill:var(--c1);animation-name:c1h}@keyframes c1i{66.3%{fill:var(--c2)}66.32%,100%{fill:var(--ce)}}.c.c1i{fill:var(--c2);animation-name:c1i}@keyframes c1j{36.06%{fill:var(--c1)}36.08%,100%{fill:var(--ce)}}.c.c1j{fill:var(--c1);animation-name:c1j}.u{transform-origin:0 0;transform:scale(0,1);animation:none linear 37700ms infinite}@keyframes u0{1.85%{transform:scale(0.000,1)}1.87%,2.11%{transform:scale(0.033,1)}2.13%,2.91%{transform:scale(0.067,1)}2.93%,3.44%{transform:scale(0.100,1)}3.46%,4.23%{transform:scale(0.133,1)}4.25%,4.76%{transform:scale(0.167,1)}4.78%,5.3%{transform:scale(0.200,1)}5.32%,5.56%{transform:scale(0.233,1)}5.58%,6.09%{transform:scale(0.267,1)}6.11%,6.62%{transform:scale(0.300,1)}6.64%,8.21%{transform:scale(0.333,1)}8.23%,9.01%{transform:scale(0.367,1)}9.03%,9.27%{transform:scale(0.400,1)}9.29%,10.33%{transform:scale(0.433,1)}10.35%,11.93%{transform:scale(0.467,1)}11.95%,12.99%{transform:scale(0.500,1)}13.01%,13.52%{transform:scale(0.533,1)}13.54%,15.37%{transform:scale(0.567,1)}15.39%,18.29%{transform:scale(0.600,1)}18.31%,18.82%{transform:scale(0.633,1)}18.84%,19.09%{transform:scale(0.667,1)}19.11%,19.35%{transform:scale(0.700,1)}19.37%,19.62%{transform:scale(0.733,1)}19.64%,20.15%{transform:scale(0.767,1)}20.17%,20.94%{transform:scale(0.800,1)}20.96%,22.54%{transform:scale(0.833,1)}22.56%,24.66%{transform:scale(0.867,1)}24.68%,35%{transform:scale(0.900,1)}35.02%,36.06%{transform:scale(0.933,1)}36.08%,42.43%{transform:scale(0.967,1)}42.45%,100%{transform:scale(1.000,1)}}.u.u0{fill:var(--c1);animation-name:u0;transform-origin:0.0px 0}@keyframes u1{42.7%{transform:scale(0.000,1)}42.72%,100%{transform:scale(1.000,1)}}.u.u1{fill:var(--c2);animation-name:u1;transform-origin:454.3px 0}@keyframes u2{44.02%{transform:scale(0.000,1)}44.04%,100%{transform:scale(1.000,1)}}.u.u2{fill:var(--c1);animation-name:u2;transform-origin:469.4px 0}@keyframes u3{44.29%{transform:scale(0.000,1)}44.31%,100%{transform:scale(1.000,1)}}.u.u3{fill:var(--c2);animation-name:u3;transform-origin:484.6px 0}@keyframes u4{44.55%{transform:scale(0.000,1)}44.57%,100%{transform:scale(1.000,1)}}.u.u4{fill:var(--c1);animation-name:u4;transform-origin:499.7px 0}@keyframes u5{44.82%{transform:scale(0.000,1)}44.84%,45.61%{transform:scale(0.111,1)}45.63%,47.2%{transform:scale(0.222,1)}47.22%,48.8%{transform:scale(0.333,1)}48.82%,53.57%{transform:scale(0.444,1)}53.59%,54.9%{transform:scale(0.556,1)}54.92%,66.04%{transform:scale(0.667,1)}66.06%,66.3%{transform:scale(0.778,1)}66.32%,68.43%{transform:scale(0.889,1)}68.45%,100%{transform:scale(1.000,1)}}.u.u5{fill:var(--c2);animation-name:u5;transform-origin:514.9px 0}@keyframes u6{74%{transform:scale(0.000,1)}74.02%,75.06%{transform:scale(0.125,1)}75.08%,76.38%{transform:scale(0.250,1)}76.4%,76.65%{transform:scale(0.375,1)}76.67%,76.91%{transform:scale(0.500,1)}76.93%,78.5%{transform:scale(0.625,1)}78.52%,81.69%{transform:scale(0.750,1)}81.71%,84.07%{transform:scale(0.875,1)}84.09%,100%{transform:scale(1.000,1)}}.u.u6{fill:var(--c3);animation-name:u6;transform-origin:651.1px 0}@keyframes u7{85.4%{transform:scale(0.000,1)}85.42%,88.85%{transform:scale(0.200,1)}88.87%,90.18%{transform:scale(0.400,1)}90.2%,91.77%{transform:scale(0.600,1)}91.79%,92.03%{transform:scale(0.800,1)}92.05%,100%{transform:scale(1.000,1)}}.u.u7{fill:var(--c4);animation-name:u7;transform-origin:772.3px 0}.s{shape-rendering:geometricPrecision;fill:var(--cs);animation:none linear 37700ms infinite}@keyframes s0{0%,99.73%{transform:translate(0px,-16px)}0.27%{transform:translate(0px,0px)}1.86%,97.88%{transform:translate(96px,0px)}2.12%{transform:translate(96px,16px)}2.39%{transform:translate(80px,16px)}3.45%{transform:translate(80px,80px)}4.24%{transform:translate(128px,80px)}4.77%{transform:translate(128px,48px)}5.57%{transform:translate(176px,48px)}5.84%{transform:translate(176px,64px)}6.1%{transform:translate(160px,64px)}6.63%{transform:translate(160px,96px)}7.43%,84.35%{transform:translate(208px,96px)}7.69%{transform:translate(208px,80px)}7.96%{transform:translate(224px,80px)}9.02%,24.4%,82.76%{transform:translate(224px,16px)}10.08%,23.34%{transform:translate(288px,16px)}10.34%{transform:translate(288px,0px)}11.41%,51.72%{transform:translate(352px,0px)}11.94%{transform:translate(352px,32px)}12.73%{transform:translate(400px,32px)}13%,17.77%,45.89%{transform:translate(400px,16px)}13.26%,17.51%,50.4%{transform:translate(416px,16px)}13.53%{transform:translate(416px,0px)}13.79%,45.09%{transform:translate(432px,0px)}14.06%{transform:translate(432px,-16px)}15.12%{transform:translate(496px,-16px)}15.38%{transform:translate(496px,0px)}15.65%{transform:translate(480px,0px)}15.92%{transform:translate(480px,-16px)}16.98%{transform:translate(416px,-16px)}18.3%{transform:translate(400px,48px)}18.57%{transform:translate(416px,48px)}18.83%,43.24%{transform:translate(416px,64px)}19.1%,48.28%{transform:translate(432px,64px)}19.36%{transform:translate(432px,80px)}20.42%,77.19%{transform:translate(368px,80px)}20.69%{transform:translate(368px,96px)}21.22%{transform:translate(336px,96px)}21.75%{transform:translate(336px,64px)}22.55%{transform:translate(288px,64px)}24.93%{transform:translate(224px,-16px)}34.22%{transform:translate(784px,-16px)}34.75%,67.11%{transform:translate(784px,16px)}35.54%{transform:translate(832px,16px)}36.07%{transform:translate(832px,48px)}42.44%{transform:translate(448px,48px)}42.71%,48.01%,89.92%{transform:translate(448px,64px)}43.77%{transform:translate(416px,32px)}44.3%,47.48%{transform:translate(448px,32px)}44.56%{transform:translate(448px,16px)}44.83%{transform:translate(432px,16px)}45.62%{transform:translate(400px,0px)}46.95%{transform:translate(464px,16px)}47.21%{transform:translate(464px,32px)}48.81%,74.27%{transform:translate(432px,96px)}49.07%{transform:translate(416px,96px)}51.46%{transform:translate(352px,16px)}54.38%{transform:translate(192px,0px)}54.64%,55.7%{transform:translate(192px,16px)}54.91%,81.96%{transform:translate(176px,16px)}55.17%{transform:translate(176px,32px)}55.44%{transform:translate(192px,32px)}65.78%{transform:translate(800px,16px)}66.05%{transform:translate(800px,0px)}66.31%{transform:translate(816px,0px)}66.58%{transform:translate(816px,16px)}68.44%{transform:translate(784px,96px)}75.07%{transform:translate(432px,48px)}76.39%{transform:translate(352px,48px)}76.92%{transform:translate(352px,80px)}78.51%{transform:translate(368px,0px)}81.7%{transform:translate(176px,0px)}84.08%{transform:translate(224px,96px)}85.41%{transform:translate(208px,32px)}88.33%{transform:translate(384px,32px)}88.86%{transform:translate(384px,64px)}90.19%{transform:translate(448px,80px)}90.45%{transform:translate(464px,80px)}91.78%{transform:translate(464px,0px)}98.14%{transform:translate(96px,-16px)}}.s.s0{transform:translate(0px,-16px);animation-name:s0}@keyframes s1{0%,99.73%{transform:translate(16px,-16px)}0.27%{transform:translate(0px,-16px)}0.53%{transform:translate(0px,0px)}2.12%,98.14%{transform:translate(96px,0px)}2.39%{transform:translate(96px,16px)}2.65%{transform:translate(80px,16px)}3.71%{transform:translate(80px,80px)}4.51%{transform:translate(128px,80px)}5.04%{transform:translate(128px,48px)}5.84%{transform:translate(176px,48px)}6.1%{transform:translate(176px,64px)}6.37%{transform:translate(160px,64px)}6.9%{transform:translate(160px,96px)}7.69%,84.62%{transform:translate(208px,96px)}7.96%{transform:translate(208px,80px)}8.22%{transform:translate(224px,80px)}9.28%,24.67%,83.02%{transform:translate(224px,16px)}10.34%,23.61%{transform:translate(288px,16px)}10.61%{transform:translate(288px,0px)}11.67%,51.99%{transform:translate(352px,0px)}12.2%{transform:translate(352px,32px)}13%{transform:translate(400px,32px)}13.26%,18.04%,46.15%{transform:translate(400px,16px)}13.53%,17.77%,50.66%{transform:translate(416px,16px)}13.79%{transform:translate(416px,0px)}14.06%,45.36%{transform:translate(432px,0px)}14.32%{transform:translate(432px,-16px)}15.38%{transform:translate(496px,-16px)}15.65%{transform:translate(496px,0px)}15.92%{transform:translate(480px,0px)}16.18%{transform:translate(480px,-16px)}17.24%{transform:translate(416px,-16px)}18.57%{transform:translate(400px,48px)}18.83%{transform:translate(416px,48px)}19.1%,43.5%{transform:translate(416px,64px)}19.36%,48.54%{transform:translate(432px,64px)}19.63%{transform:translate(432px,80px)}20.69%,77.45%{transform:translate(368px,80px)}20.95%{transform:translate(368px,96px)}21.49%{transform:translate(336px,96px)}22.02%{transform:translate(336px,64px)}22.81%{transform:translate(288px,64px)}25.2%{transform:translate(224px,-16px)}34.48%{transform:translate(784px,-16px)}35.01%,67.37%{transform:translate(784px,16px)}35.81%{transform:translate(832px,16px)}36.34%{transform:translate(832px,48px)}42.71%{transform:translate(448px,48px)}42.97%,48.28%,90.19%{transform:translate(448px,64px)}44.03%{transform:translate(416px,32px)}44.56%,47.75%{transform:translate(448px,32px)}44.83%{transform:translate(448px,16px)}45.09%{transform:translate(432px,16px)}45.89%{transform:translate(400px,0px)}47.21%{transform:translate(464px,16px)}47.48%{transform:translate(464px,32px)}49.07%,74.54%{transform:translate(432px,96px)}49.34%{transform:translate(416px,96px)}51.72%{transform:translate(352px,16px)}54.64%{transform:translate(192px,0px)}54.91%,55.97%{transform:translate(192px,16px)}55.17%,82.23%{transform:translate(176px,16px)}55.44%{transform:translate(176px,32px)}55.7%{transform:translate(192px,32px)}66.05%{transform:translate(800px,16px)}66.31%{transform:translate(800px,0px)}66.58%{transform:translate(816px,0px)}66.84%{transform:translate(816px,16px)}68.7%{transform:translate(784px,96px)}75.33%{transform:translate(432px,48px)}76.66%{transform:translate(352px,48px)}77.19%{transform:translate(352px,80px)}78.78%{transform:translate(368px,0px)}81.96%{transform:translate(176px,0px)}84.35%{transform:translate(224px,96px)}85.68%{transform:translate(208px,32px)}88.59%{transform:translate(384px,32px)}89.12%{transform:translate(384px,64px)}90.45%{transform:translate(448px,80px)}90.72%{transform:translate(464px,80px)}92.04%{transform:translate(464px,0px)}98.41%{transform:translate(96px,-16px)}}.s.s1{transform:translate(16px,-16px);animation-name:s1}@keyframes s2{0%,99.73%{transform:translate(32px,-16px)}0.53%{transform:translate(0px,-16px)}0.8%{transform:translate(0px,0px)}2.39%,98.41%{transform:translate(96px,0px)}2.65%{transform:translate(96px,16px)}2.92%{transform:translate(80px,16px)}3.98%{transform:translate(80px,80px)}4.77%{transform:translate(128px,80px)}5.31%{transform:translate(128px,48px)}6.1%{transform:translate(176px,48px)}6.37%{transform:translate(176px,64px)}6.63%{transform:translate(160px,64px)}7.16%{transform:translate(160px,96px)}7.96%,84.88%{transform:translate(208px,96px)}8.22%{transform:translate(208px,80px)}8.49%{transform:translate(224px,80px)}9.55%,24.93%,83.29%{transform:translate(224px,16px)}10.61%,23.87%{transform:translate(288px,16px)}10.88%{transform:translate(288px,0px)}11.94%,52.25%{transform:translate(352px,0px)}12.47%{transform:translate(352px,32px)}13.26%{transform:translate(400px,32px)}13.53%,18.3%,46.42%{transform:translate(400px,16px)}13.79%,18.04%,50.93%{transform:translate(416px,16px)}14.06%{transform:translate(416px,0px)}14.32%,45.62%{transform:translate(432px,0px)}14.59%{transform:translate(432px,-16px)}15.65%{transform:translate(496px,-16px)}15.92%{transform:translate(496px,0px)}16.18%{transform:translate(480px,0px)}16.45%{transform:translate(480px,-16px)}17.51%{transform:translate(416px,-16px)}18.83%{transform:translate(400px,48px)}19.1%{transform:translate(416px,48px)}19.36%,43.77%{transform:translate(416px,64px)}19.63%,48.81%{transform:translate(432px,64px)}19.89%{transform:translate(432px,80px)}20.95%,77.72%{transform:translate(368px,80px)}21.22%{transform:translate(368px,96px)}21.75%{transform:translate(336px,96px)}22.28%{transform:translate(336px,64px)}23.08%{transform:translate(288px,64px)}25.46%{transform:translate(224px,-16px)}34.75%{transform:translate(784px,-16px)}35.28%,67.64%{transform:translate(784px,16px)}36.07%{transform:translate(832px,16px)}36.6%{transform:translate(832px,48px)}42.97%{transform:translate(448px,48px)}43.24%,48.54%,90.45%{transform:translate(448px,64px)}44.3%{transform:translate(416px,32px)}44.83%,48.01%{transform:translate(448px,32px)}45.09%{transform:translate(448px,16px)}45.36%{transform:translate(432px,16px)}46.15%{transform:translate(400px,0px)}47.48%{transform:translate(464px,16px)}47.75%{transform:translate(464px,32px)}49.34%,74.8%{transform:translate(432px,96px)}49.6%{transform:translate(416px,96px)}51.99%{transform:translate(352px,16px)}54.91%{transform:translate(192px,0px)}55.17%,56.23%{transform:translate(192px,16px)}55.44%,82.49%{transform:translate(176px,16px)}55.7%{transform:translate(176px,32px)}55.97%{transform:translate(192px,32px)}66.31%{transform:translate(800px,16px)}66.58%{transform:translate(800px,0px)}66.84%{transform:translate(816px,0px)}67.11%{transform:translate(816px,16px)}68.97%{transform:translate(784px,96px)}75.6%{transform:translate(432px,48px)}76.92%{transform:translate(352px,48px)}77.45%{transform:translate(352px,80px)}79.05%{transform:translate(368px,0px)}82.23%{transform:translate(176px,0px)}84.62%{transform:translate(224px,96px)}85.94%{transform:translate(208px,32px)}88.86%{transform:translate(384px,32px)}89.39%{transform:translate(384px,64px)}90.72%{transform:translate(448px,80px)}90.98%{transform:translate(464px,80px)}92.31%{transform:translate(464px,0px)}98.67%{transform:translate(96px,-16px)}}.s.s2{transform:translate(32px,-16px);animation-name:s2}@keyframes s3{0%,99.73%{transform:translate(48px,-16px)}0.8%{transform:translate(0px,-16px)}1.06%{transform:translate(0px,0px)}2.65%,98.67%{transform:translate(96px,0px)}2.92%{transform:translate(96px,16px)}3.18%{transform:translate(80px,16px)}4.24%{transform:translate(80px,80px)}5.04%{transform:translate(128px,80px)}5.57%{transform:translate(128px,48px)}6.37%{transform:translate(176px,48px)}6.63%{transform:translate(176px,64px)}6.9%{transform:translate(160px,64px)}7.43%{transform:translate(160px,96px)}8.22%,85.15%{transform:translate(208px,96px)}8.49%{transform:translate(208px,80px)}8.75%{transform:translate(224px,80px)}9.81%,25.2%,83.55%{transform:translate(224px,16px)}10.88%,24.14%{transform:translate(288px,16px)}11.14%{transform:translate(288px,0px)}12.2%,52.52%{transform:translate(352px,0px)}12.73%{transform:translate(352px,32px)}13.53%{transform:translate(400px,32px)}13.79%,18.57%,46.68%{transform:translate(400px,16px)}14.06%,18.3%,51.19%{transform:translate(416px,16px)}14.32%{transform:translate(416px,0px)}14.59%,45.89%{transform:translate(432px,0px)}14.85%{transform:translate(432px,-16px)}15.92%{transform:translate(496px,-16px)}16.18%{transform:translate(496px,0px)}16.45%{transform:translate(480px,0px)}16.71%{transform:translate(480px,-16px)}17.77%{transform:translate(416px,-16px)}19.1%{transform:translate(400px,48px)}19.36%{transform:translate(416px,48px)}19.63%,44.03%{transform:translate(416px,64px)}19.89%,49.07%{transform:translate(432px,64px)}20.16%{transform:translate(432px,80px)}21.22%,77.98%{transform:translate(368px,80px)}21.49%{transform:translate(368px,96px)}22.02%{transform:translate(336px,96px)}22.55%{transform:translate(336px,64px)}23.34%{transform:translate(288px,64px)}25.73%{transform:translate(224px,-16px)}35.01%{transform:translate(784px,-16px)}35.54%,67.9%{transform:translate(784px,16px)}36.34%{transform:translate(832px,16px)}36.87%{transform:translate(832px,48px)}43.24%{transform:translate(448px,48px)}43.5%,48.81%,90.72%{transform:translate(448px,64px)}44.56%{transform:translate(416px,32px)}45.09%,48.28%{transform:translate(448px,32px)}45.36%{transform:translate(448px,16px)}45.62%{transform:translate(432px,16px)}46.42%{transform:translate(400px,0px)}47.75%{transform:translate(464px,16px)}48.01%{transform:translate(464px,32px)}49.6%,75.07%{transform:translate(432px,96px)}49.87%{transform:translate(416px,96px)}52.25%{transform:translate(352px,16px)}55.17%{transform:translate(192px,0px)}55.44%,56.5%{transform:translate(192px,16px)}55.7%,82.76%{transform:translate(176px,16px)}55.97%{transform:translate(176px,32px)}56.23%{transform:translate(192px,32px)}66.58%{transform:translate(800px,16px)}66.84%{transform:translate(800px,0px)}67.11%{transform:translate(816px,0px)}67.37%{transform:translate(816px,16px)}69.23%{transform:translate(784px,96px)}75.86%{transform:translate(432px,48px)}77.19%{transform:translate(352px,48px)}77.72%{transform:translate(352px,80px)}79.31%{transform:translate(368px,0px)}82.49%{transform:translate(176px,0px)}84.88%{transform:translate(224px,96px)}86.21%{transform:translate(208px,32px)}89.12%{transform:translate(384px,32px)}89.66%{transform:translate(384px,64px)}90.98%{transform:translate(448px,80px)}91.25%{transform:translate(464px,80px)}92.57%{transform:translate(464px,0px)}98.94%{transform:translate(96px,-16px)}}.s.s3{transform:translate(48px,-16px);animation-name:s3}</style><rect class="c" x="2" y="2" rx="2" ry="2"/><rect class="c" x="2" y="18" rx="2" ry="2"/><rect class="c" x="2" y="34" rx="2" ry="2"/><rect class="c" x="2" y="50" rx="2" ry="2"/><rect class="c" x="2" y="66" rx="2" ry="2"/><rect class="c" x="2" y="82" rx="2" ry="2"/><rect class="c" x="2" y="98" rx="2" ry="2"/><rect class="c" x="18" y="2" rx="2" ry="2"/><rect class="c" x="18" y="18" rx="2" ry="2"/><rect class="c" x="18" y="34" rx="2" ry="2"/><rect class="c" x="18" y="50" rx="2" ry="2"/><rect class="c" x="18" y="66" rx="2" ry="2"/><rect class="c" x="18" y="82" rx="2" ry="2"/><rect class="c" x="18" y="98" rx="2" ry="2"/><rect class="c" x="34" y="2" rx="2" ry="2"/><rect class="c" x="34" y="18" rx="2" ry="2"/><rect class="c" x="34" y="34" rx="2" ry="2"/><rect class="c" x="34" y="50" rx="2" ry="2"/><rect class="c" x="34" y="66" rx="2" ry="2"/><rect class="c" x="34" y="82" rx="2" ry="2"/><rect class="c" x="34" y="98" rx="2" ry="2"/><rect class="c" x="50" y="2" rx="2" ry="2"/><rect class="c" x="50" y="18" rx="2" ry="2"/><rect class="c" x="50" y="34" rx="2" ry="2"/><rect class="c" x="50" y="50" rx="2" ry="2"/><rect class="c" x="50" y="66" rx="2" ry="2"/><rect class="c" x="50" y="82" rx="2" ry="2"/><rect class="c" x="50" y="98" rx="2" ry="2"/><rect class="c" x="66" y="2" rx="2" ry="2"/><rect class="c" x="66" y="18" rx="2" ry="2"/><rect class="c" x="66" y="34" rx="2" ry="2"/><rect class="c" x="66" y="50" rx="2" ry="2"/><rect class="c" x="66" y="66" rx="2" ry="2"/><rect class="c" x="66" y="82" rx="2" ry="2"/><rect class="c" x="66" y="98" rx="2" ry="2"/><rect class="c" x="82" y="2" rx="2" ry="2"/><rect class="c" x="82" y="18" rx="2" ry="2"/><rect class="c" x="82" y="34" rx="2" ry="2"/><rect class="c c0" x="82" y="50" rx="2" ry="2"/><rect class="c" x="82" y="66" rx="2" ry="2"/><rect class="c c1" x="82" y="82" rx="2" ry="2"/><rect class="c" x="82" y="98" rx="2" ry="2"/><rect class="c c2" x="98" y="2" rx="2" ry="2"/><rect class="c c3" x="98" y="18" rx="2" ry="2"/><rect class="c" x="98" y="34" rx="2" ry="2"/><rect class="c" x="98" y="50" rx="2" ry="2"/><rect class="c" x="98" y="66" rx="2" ry="2"/><rect class="c" x="98" y="82" rx="2" ry="2"/><rect class="c" x="98" y="98" rx="2" ry="2"/><rect class="c" x="114" y="2" rx="2" ry="2"/><rect class="c" x="114" y="18" rx="2" ry="2"/><rect class="c" x="114" y="34" rx="2" ry="2"/><rect class="c" x="114" y="50" rx="2" ry="2"/><rect class="c" x="114" y="66" rx="2" ry="2"/><rect class="c" x="114" y="82" rx="2" ry="2"/><rect class="c" x="114" y="98" rx="2" ry="2"/><rect class="c" x="130" y="2" rx="2" ry="2"/><rect class="c" x="130" y="18" rx="2" ry="2"/><rect class="c" x="130" y="34" rx="2" ry="2"/><rect class="c c4" x="130" y="50" rx="2" ry="2"/><rect class="c" x="130" y="66" rx="2" ry="2"/><rect class="c c5" x="130" y="82" rx="2" ry="2"/><rect class="c" x="130" y="98" rx="2" ry="2"/><rect class="c" x="146" y="2" rx="2" ry="2"/><rect class="c" x="146" y="18" rx="2" ry="2"/><rect class="c" x="146" y="34" rx="2" ry="2"/><rect class="c" x="146" y="50" rx="2" ry="2"/><rect class="c" x="146" y="66" rx="2" ry="2"/><rect class="c" x="146" y="82" rx="2" ry="2"/><rect class="c" x="146" y="98" rx="2" ry="2"/><rect class="c" x="162" y="2" rx="2" ry="2"/><rect class="c" x="162" y="18" rx="2" ry="2"/><rect class="c" x="162" y="34" rx="2" ry="2"/><rect class="c c6" x="162" y="50" rx="2" ry="2"/><rect class="c c7" x="162" y="66" rx="2" ry="2"/><rect class="c" x="162" y="82" rx="2" ry="2"/><rect class="c c8" x="162" y="98" rx="2" ry="2"/><rect class="c c9" x="178" y="2" rx="2" ry="2"/><rect class="c ca" x="178" y="18" rx="2" ry="2"/><rect class="c" x="178" y="34" rx="2" ry="2"/><rect class="c cb" x="178" y="50" rx="2" ry="2"/><rect class="c" x="178" y="66" rx="2" ry="2"/><rect class="c" x="178" y="82" rx="2" ry="2"/><rect class="c" x="178" y="98" rx="2" ry="2"/><rect class="c" x="194" y="2" rx="2" ry="2"/><rect class="c" x="194" y="18" rx="2" ry="2"/><rect class="c" x="194" y="34" rx="2" ry="2"/><rect class="c" x="194" y="50" rx="2" ry="2"/><rect class="c" x="194" y="66" rx="2" ry="2"/><rect class="c" x="194" y="82" rx="2" ry="2"/><rect class="c" x="194" y="98" rx="2" ry="2"/><rect class="c" x="210" y="2" rx="2" ry="2"/><rect class="c" x="210" y="18" rx="2" ry="2"/><rect class="c cc" x="210" y="34" rx="2" ry="2"/><rect class="c" x="210" y="50" rx="2" ry="2"/><rect class="c" x="210" y="66" rx="2" ry="2"/><rect class="c" x="210" y="82" rx="2" ry="2"/><rect class="c" x="210" y="98" rx="2" ry="2"/><rect class="c cd" x="226" y="2" rx="2" ry="2"/><rect class="c ce" x="226" y="18" rx="2" ry="2"/><rect class="c" x="226" y="34" rx="2" ry="2"/><rect class="c" x="226" y="50" rx="2" ry="2"/><rect class="c cf" x="226" y="66" rx="2" ry="2"/><rect class="c" x="226" y="82" rx="2" ry="2"/><rect class="c cg" x="226" y="98" rx="2" ry="2"/><rect class="c ch" x="242" y="2" rx="2" ry="2"/><rect class="c ci" x="242" y="18" rx="2" ry="2"/><rect class="c" x="242" y="34" rx="2" ry="2"/><rect class="c" x="242" y="50" rx="2" ry="2"/><rect class="c" x="242" y="66" rx="2" ry="2"/><rect class="c" x="242" y="82" rx="2" ry="2"/><rect class="c" x="242" y="98" rx="2" ry="2"/><rect class="c" x="258" y="2" rx="2" ry="2"/><rect class="c" x="258" y="18" rx="2" ry="2"/><rect class="c" x="258" y="34" rx="2" ry="2"/><rect class="c" x="258" y="50" rx="2" ry="2"/><rect class="c" x="258" y="66" rx="2" ry="2"/><rect class="c" x="258" y="82" rx="2" ry="2"/><rect class="c" x="258" y="98" rx="2" ry="2"/><rect class="c" x="274" y="2" rx="2" ry="2"/><rect class="c" x="274" y="18" rx="2" ry="2"/><rect class="c" x="274" y="34" rx="2" ry="2"/><rect class="c" x="274" y="50" rx="2" ry="2"/><rect class="c" x="274" y="66" rx="2" ry="2"/><rect class="c" x="274" y="82" rx="2" ry="2"/><rect class="c" x="274" y="98" rx="2" ry="2"/><rect class="c cj" x="290" y="2" rx="2" ry="2"/><rect class="c" x="290" y="18" rx="2" ry="2"/><rect class="c" x="290" y="34" rx="2" ry="2"/><rect class="c" x="290" y="50" rx="2" ry="2"/><rect class="c ck" x="290" y="66" rx="2" ry="2"/><rect class="c" x="290" y="82" rx="2" ry="2"/><rect class="c" x="290" y="98" rx="2" ry="2"/><rect class="c" x="306" y="2" rx="2" ry="2"/><rect class="c" x="306" y="18" rx="2" ry="2"/><rect class="c" x="306" y="34" rx="2" ry="2"/><rect class="c" x="306" y="50" rx="2" ry="2"/><rect class="c" x="306" y="66" rx="2" ry="2"/><rect class="c" x="306" y="82" rx="2" ry="2"/><rect class="c" x="306" y="98" rx="2" ry="2"/><rect class="c" x="322" y="2" rx="2" ry="2"/><rect class="c" x="322" y="18" rx="2" ry="2"/><rect class="c" x="322" y="34" rx="2" ry="2"/><rect class="c" x="322" y="50" rx="2" ry="2"/><rect class="c" x="322" y="66" rx="2" ry="2"/><rect class="c" x="322" y="82" rx="2" ry="2"/><rect class="c" x="322" y="98" rx="2" ry="2"/><rect class="c" x="338" y="2" rx="2" ry="2"/><rect class="c" x="338" y="18" rx="2" ry="2"/><rect class="c" x="338" y="34" rx="2" ry="2"/><rect class="c" x="338" y="50" rx="2" ry="2"/><rect class="c" x="338" y="66" rx="2" ry="2"/><rect class="c" x="338" y="82" rx="2" ry="2"/><rect class="c" x="338" y="98" rx="2" ry="2"/><rect class="c" x="354" y="2" rx="2" ry="2"/><rect class="c" x="354" y="18" rx="2" ry="2"/><rect class="c cl" x="354" y="34" rx="2" ry="2"/><rect class="c cm" x="354" y="50" rx="2" ry="2"/><rect class="c cn" x="354" y="66" rx="2" ry="2"/><rect class="c co" x="354" y="82" rx="2" ry="2"/><rect class="c cp" x="354" y="98" rx="2" ry="2"/><rect class="c cq" x="370" y="2" rx="2" ry="2"/><rect class="c" x="370" y="18" rx="2" ry="2"/><rect class="c" x="370" y="34" rx="2" ry="2"/><rect class="c" x="370" y="50" rx="2" ry="2"/><rect class="c" x="370" y="66" rx="2" ry="2"/><rect class="c" x="370" y="82" rx="2" ry="2"/><rect class="c" x="370" y="98" rx="2" ry="2"/><rect class="c" x="386" y="2" rx="2" ry="2"/><rect class="c" x="386" y="18" rx="2" ry="2"/><rect class="c" x="386" y="34" rx="2" ry="2"/><rect class="c" x="386" y="50" rx="2" ry="2"/><rect class="c cr" x="386" y="66" rx="2" ry="2"/><rect class="c cs" x="386" y="82" rx="2" ry="2"/><rect class="c" x="386" y="98" rx="2" ry="2"/><rect class="c ct" x="402" y="2" rx="2" ry="2"/><rect class="c cu" x="402" y="18" rx="2" ry="2"/><rect class="c" x="402" y="34" rx="2" ry="2"/><rect class="c cv" x="402" y="50" rx="2" ry="2"/><rect class="c" x="402" y="66" rx="2" ry="2"/><rect class="c" x="402" y="82" rx="2" ry="2"/><rect class="c" x="402" y="98" rx="2" ry="2"/><rect class="c cw" x="418" y="2" rx="2" ry="2"/><rect class="c" x="418" y="18" rx="2" ry="2"/><rect class="c" x="418" y="34" rx="2" ry="2"/><rect class="c" x="418" y="50" rx="2" ry="2"/><rect class="c cx" x="418" y="66" rx="2" ry="2"/><rect class="c cy" x="418" y="82" rx="2" ry="2"/><rect class="c" x="418" y="98" rx="2" ry="2"/><rect class="c" x="434" y="2" rx="2" ry="2"/><rect class="c cz" x="434" y="18" rx="2" ry="2"/><rect class="c c10" x="434" y="34" rx="2" ry="2"/><rect class="c c11" x="434" y="50" rx="2" ry="2"/><rect class="c c12" x="434" y="66" rx="2" ry="2"/><rect class="c c13" x="434" y="82" rx="2" ry="2"/><rect class="c c14" x="434" y="98" rx="2" ry="2"/><rect class="c c15" x="450" y="2" rx="2" ry="2"/><rect class="c c16" x="450" y="18" rx="2" ry="2"/><rect class="c c17" x="450" y="34" rx="2" ry="2"/><rect class="c c18" x="450" y="50" rx="2" ry="2"/><rect class="c c19" x="450" y="66" rx="2" ry="2"/><rect class="c c1a" x="450" y="82" rx="2" ry="2"/><rect class="c c1b" x="450" y="98" rx="2" ry="2"/><rect class="c c1c" x="466" y="2" rx="2" ry="2"/><rect class="c" x="466" y="18" rx="2" ry="2"/><rect class="c c1d" x="466" y="34" rx="2" ry="2"/><rect class="c" x="466" y="50" rx="2" ry="2"/><rect class="c" x="466" y="66" rx="2" ry="2"/><rect class="c" x="466" y="82" rx="2" ry="2"/><rect class="c" x="466" y="98" rx="2" ry="2"/><rect class="c" x="482" y="2" rx="2" ry="2"/><rect class="c" x="482" y="18" rx="2" ry="2"/><rect class="c" x="482" y="34" rx="2" ry="2"/><rect class="c" x="482" y="50" rx="2" ry="2"/><rect class="c" x="482" y="66" rx="2" ry="2"/><rect class="c" x="482" y="82" rx="2" ry="2"/><rect class="c" x="482" y="98" rx="2" ry="2"/><rect class="c c1e" x="498" y="2" rx="2" ry="2"/><rect class="c" x="498" y="18" rx="2" ry="2"/><rect class="c" x="498" y="34" rx="2" ry="2"/><rect class="c" x="498" y="50" rx="2" ry="2"/><rect class="c" x="498" y="66" rx="2" ry="2"/><rect class="c" x="498" y="82" rx="2" ry="2"/><rect class="c" x="498" y="98" rx="2" ry="2"/><rect class="c" x="514" y="2" rx="2" ry="2"/><rect class="c" x="514" y="18" rx="2" ry="2"/><rect class="c" x="514" y="34" rx="2" ry="2"/><rect class="c" x="514" y="50" rx="2" ry="2"/><rect class="c" x="514" y="66" rx="2" ry="2"/><rect class="c" x="514" y="82" rx="2" ry="2"/><rect class="c" x="514" y="98" rx="2" ry="2"/><rect class="c" x="530" y="2" rx="2" ry="2"/><rect class="c" x="530" y="18" rx="2" ry="2"/><rect class="c" x="530" y="34" rx="2" ry="2"/><rect class="c" x="530" y="50" rx="2" ry="2"/><rect class="c" x="530" y="66" rx="2" ry="2"/><rect class="c" x="530" y="82" rx="2" ry="2"/><rect class="c" x="530" y="98" rx="2" ry="2"/><rect class="c" x="546" y="2" rx="2" ry="2"/><rect class="c" x="546" y="18" rx="2" ry="2"/><rect class="c" x="546" y="34" rx="2" ry="2"/><rect class="c" x="546" y="50" rx="2" ry="2"/><rect class="c" x="546" y="66" rx="2" ry="2"/><rect class="c" x="546" y="82" rx="2" ry="2"/><rect class="c" x="546" y="98" rx="2" ry="2"/><rect class="c" x="562" y="2" rx="2" ry="2"/><rect class="c" x="562" y="18" rx="2" ry="2"/><rect class="c" x="562" y="34" rx="2" ry="2"/><rect class="c" x="562" y="50" rx="2" ry="2"/><rect class="c" x="562" y="66" rx="2" ry="2"/><rect class="c" x="562" y="82" rx="2" ry="2"/><rect class="c" x="562" y="98" rx="2" ry="2"/><rect class="c" x="578" y="2" rx="2" ry="2"/><rect class="c" x="578" y="18" rx="2" ry="2"/><rect class="c" x="578" y="34" rx="2" ry="2"/><rect class="c" x="578" y="50" rx="2" ry="2"/><rect class="c" x="578" y="66" rx="2" ry="2"/><rect class="c" x="578" y="82" rx="2" ry="2"/><rect class="c" x="578" y="98" rx="2" ry="2"/><rect class="c" x="594" y="2" rx="2" ry="2"/><rect class="c" x="594" y="18" rx="2" ry="2"/><rect class="c" x="594" y="34" rx="2" ry="2"/><rect class="c" x="594" y="50" rx="2" ry="2"/><rect class="c" x="594" y="66" rx="2" ry="2"/><rect class="c" x="594" y="82" rx="2" ry="2"/><rect class="c" x="594" y="98" rx="2" ry="2"/><rect class="c" x="610" y="2" rx="2" ry="2"/><rect class="c" x="610" y="18" rx="2" ry="2"/><rect class="c" x="610" y="34" rx="2" ry="2"/><rect class="c" x="610" y="50" rx="2" ry="2"/><rect class="c" x="610" y="66" rx="2" ry="2"/><rect class="c" x="610" y="82" rx="2" ry="2"/><rect class="c" x="610" y="98" rx="2" ry="2"/><rect class="c" x="626" y="2" rx="2" ry="2"/><rect class="c" x="626" y="18" rx="2" ry="2"/><rect class="c" x="626" y="34" rx="2" ry="2"/><rect class="c" x="626" y="50" rx="2" ry="2"/><rect class="c" x="626" y="66" rx="2" ry="2"/><rect class="c" x="626" y="82" rx="2" ry="2"/><rect class="c" x="626" y="98" rx="2" ry="2"/><rect class="c" x="642" y="2" rx="2" ry="2"/><rect class="c" x="642" y="18" rx="2" ry="2"/><rect class="c" x="642" y="34" rx="2" ry="2"/><rect class="c" x="642" y="50" rx="2" ry="2"/><rect class="c" x="642" y="66" rx="2" ry="2"/><rect class="c" x="642" y="82" rx="2" ry="2"/><rect class="c" x="642" y="98" rx="2" ry="2"/><rect class="c" x="658" y="2" rx="2" ry="2"/><rect class="c" x="658" y="18" rx="2" ry="2"/><rect class="c" x="658" y="34" rx="2" ry="2"/><rect class="c" x="658" y="50" rx="2" ry="2"/><rect class="c" x="658" y="66" rx="2" ry="2"/><rect class="c" x="658" y="82" rx="2" ry="2"/><rect class="c" x="658" y="98" rx="2" ry="2"/><rect class="c" x="674" y="2" rx="2" ry="2"/><rect class="c" x="674" y="18" rx="2" ry="2"/><rect class="c" x="674" y="34" rx="2" ry="2"/><rect class="c" x="674" y="50" rx="2" ry="2"/><rect class="c" x="674" y="66" rx="2" ry="2"/><rect class="c" x="674" y="82" rx="2" ry="2"/><rect class="c" x="674" y="98" rx="2" ry="2"/><rect class="c" x="690" y="2" rx="2" ry="2"/><rect class="c" x="690" y="18" rx="2" ry="2"/><rect class="c" x="690" y="34" rx="2" ry="2"/><rect class="c" x="690" y="50" rx="2" ry="2"/><rect class="c" x="690" y="66" rx="2" ry="2"/><rect class="c" x="690" y="82" rx="2" ry="2"/><rect class="c" x="690" y="98" rx="2" ry="2"/><rect class="c" x="706" y="2" rx="2" ry="2"/><rect class="c" x="706" y="18" rx="2" ry="2"/><rect class="c" x="706" y="34" rx="2" ry="2"/><rect class="c" x="706" y="50" rx="2" ry="2"/><rect class="c" x="706" y="66" rx="2" ry="2"/><rect class="c" x="706" y="82" rx="2" ry="2"/><rect class="c" x="706" y="98" rx="2" ry="2"/><rect class="c" x="722" y="2" rx="2" ry="2"/><rect class="c" x="722" y="18" rx="2" ry="2"/><rect class="c" x="722" y="34" rx="2" ry="2"/><rect class="c" x="722" y="50" rx="2" ry="2"/><rect class="c" x="722" y="66" rx="2" ry="2"/><rect class="c" x="722" y="82" rx="2" ry="2"/><rect class="c" x="722" y="98" rx="2" ry="2"/><rect class="c" x="738" y="2" rx="2" ry="2"/><rect class="c" x="738" y="18" rx="2" ry="2"/><rect class="c" x="738" y="34" rx="2" ry="2"/><rect class="c" x="738" y="50" rx="2" ry="2"/><rect class="c" x="738" y="66" rx="2" ry="2"/><rect class="c" x="738" y="82" rx="2" ry="2"/><rect class="c" x="738" y="98" rx="2" ry="2"/><rect class="c" x="754" y="2" rx="2" ry="2"/><rect class="c" x="754" y="18" rx="2" ry="2"/><rect class="c" x="754" y="34" rx="2" ry="2"/><rect class="c" x="754" y="50" rx="2" ry="2"/><rect class="c" x="754" y="66" rx="2" ry="2"/><rect class="c" x="754" y="82" rx="2" ry="2"/><rect class="c" x="754" y="98" rx="2" ry="2"/><rect class="c" x="770" y="2" rx="2" ry="2"/><rect class="c" x="770" y="18" rx="2" ry="2"/><rect class="c" x="770" y="34" rx="2" ry="2"/><rect class="c" x="770" y="50" rx="2" ry="2"/><rect class="c" x="770" y="66" rx="2" ry="2"/><rect class="c" x="770" y="82" rx="2" ry="2"/><rect class="c" x="770" y="98" rx="2" ry="2"/><rect class="c" x="786" y="2" rx="2" ry="2"/><rect class="c" x="786" y="18" rx="2" ry="2"/><rect class="c" x="786" y="34" rx="2" ry="2"/><rect class="c" x="786" y="50" rx="2" ry="2"/><rect class="c" x="786" y="66" rx="2" ry="2"/><rect class="c" x="786" y="82" rx="2" ry="2"/><rect class="c c1f" x="786" y="98" rx="2" ry="2"/><rect class="c c1g" x="802" y="2" rx="2" ry="2"/><rect class="c c1h" x="802" y="18" rx="2" ry="2"/><rect class="c" x="802" y="34" rx="2" ry="2"/><rect class="c" x="802" y="50" rx="2" ry="2"/><rect class="c" x="802" y="66" rx="2" ry="2"/><rect class="c" x="802" y="82" rx="2" ry="2"/><rect class="c" x="802" y="98" rx="2" ry="2"/><rect class="c c1i" x="818" y="2" rx="2" ry="2"/><rect class="c" x="818" y="18" rx="2" ry="2"/><rect class="c" x="818" y="34" rx="2" ry="2"/><rect class="c" x="818" y="50" rx="2" ry="2"/><rect class="c" x="818" y="66" rx="2" ry="2"/><rect class="c" x="818" y="82" rx="2" ry="2"/><rect class="c" x="818" y="98" rx="2" ry="2"/><rect class="c" x="834" y="2" rx="2" ry="2"/><rect class="c" x="834" y="18" rx="2" ry="2"/><rect class="c" x="834" y="34" rx="2" ry="2"/><rect class="c c1j" x="834" y="50" rx="2" ry="2"/><rect class="c" x="834" y="66" rx="2" ry="2"/><rect class="u u0" height="12" width="454.9" x="0.0" y="144"/><rect class="u u1" height="12" width="15.7" x="454.3" y="144"/><rect class="u u2" height="12" width="15.7" x="469.4" y="144"/><rect class="u u3" height="12" width="15.7" x="484.6" y="144"/><rect class="u u4" height="12" width="15.7" x="499.7" y="144"/><rect class="u u5" height="12" width="136.9" x="514.9" y="144"/><rect class="u u6" height="12" width="121.7" x="651.1" y="144"/><rect class="u u7" height="12" width="76.3" x="772.3" y="144"/><rect class="s s0" x="0.8" y="0.8" width="14.4" height="14.4" rx="4.5" ry="4.5"/><rect class="s s1" x="1.8" y="1.8" width="12.3" height="12.3" rx="4.1" ry="4.1"/><rect class="s s2" x="2.6" y="2.6" width="10.8" height="10.8" rx="3.6" ry="3.6"/><rect class="s s3" x="3.0" y="3.0" width="9.9" height="9.9" rx="3.3" ry="3.3"/></svg>