<svg viewBox="-16 -32 880 192" width="880" height="192" xmlns="http://www.w3.org/2000/svg"><desc>Generated with https://github.com/Platane/snk</desc><style>:root{--cb:#1b1f230a;--cs:#ffc71f;--ce:#2b3137;--c0:#2b3137;--c1:#1e4f36;--c2:#194d33;--c3:#237a37;--c4:#26a641}.c{shape-rendering:geometricPrecision;fill:var(--ce);stroke-width:1px;stroke:var(--cb);animation:none 31700ms linear infinite;width:12px;height:12px}@keyframes c0{1.88%{fill:var(--c1)}1.9%,100%{fill:var(--ce)}}.c.c0{fill:var(--c1);animation-name:c0}@keyframes c1{88.63%{fill:var(--c3)}88.65%,100%{fill:var(--ce)}}.c.c1{fill:var(--c3);animation-name:c1}@keyframes c2{88.95%{fill:var(--c3)}88.97%,100%{fill:var(--ce)}}.c.c2{fill:var(--c3);animation-name:c2}@keyframes c3{89.26%{fill:var(--c3)}89.28%,100%{fill:var(--ce)}}.c.c3{fill:var(--c3);animation-name:c3}@keyframes c4{12.61%{fill:var(--c1)}12.63%,100%{fill:var(--ce)}}.c.c4{fill:var(--c1);animation-name:c4}@keyframes c5{91.16%{fill:var(--c3)}91.18%,100%{fill:var(--ce)}}.c.c5{fill:var(--c3);animation-name:c5}@keyframes c6{96.52%{fill:var(--c4)}96.54%,100%{fill:var(--ce)}}.c.c6{fill:var(--c4);animation-name:c6}@keyframes c7{11.66%{fill:var(--c1)}11.68%,100%{fill:var(--ce)}}.c.c7{fill:var(--c1);animation-name:c7}@keyframes c8{53.93%{fill:var(--c2)}53.95%,100%{fill:var(--ce)}}.c.c8{fill:var(--c2);animation-name:c8}@keyframes c9{3.14%{fill:var(--c1)}3.16%,100%{fill:var(--ce)}}.c.c9{fill:var(--c1);animation-name:c9}@keyframes ca{9.45%{fill:var(--c1)}9.47%,100%{fill:var(--ce)}}.c.ca{fill:var(--c1);animation-name:ca}@keyframes cb{3.78%{fill:var(--c1)}3.8%,100%{fill:var(--ce)}}.c.cb{fill:var(--c1);animation-name:cb}@keyframes cc{10.08%{fill:var(--c1)}10.1%,100%{fill:var(--ce)}}.c.cc{fill:var(--c1);animation-name:cc}@keyframes cd{11.03%{fill:var(--c1)}11.05%,100%{fill:var(--ce)}}.c.cd{fill:var(--c1);animation-name:cd}@keyframes ce{52.99%{fill:var(--c2)}53.01%,100%{fill:var(--ce)}}.c.ce{fill:var(--c2);animation-name:ce}@keyframes cf{52.04%{fill:var(--c1)}52.06%,100%{fill:var(--ce)}}.c.cf{fill:var(--c1);animation-name:cf}@keyframes cg{87.06%{fill:var(--c3)}87.08%,100%{fill:var(--ce)}}.c.cg{fill:var(--c3);animation-name:cg}@keyframes ch{10.4%{fill:var(--c1)}10.42%,100%{fill:var(--ce)}}.c.ch{fill:var(--c1);animation-name:ch}@keyframes ci{10.72%{fill:var(--c1)}10.74%,100%{fill:var(--ce)}}.c.ci{fill:var(--c1);animation-name:ci}@keyframes cj{57.72%{fill:var(--c2)}57.74%,100%{fill:var(--ce)}}.c.cj{fill:var(--c2);animation-name:cj}@keyframes ck{92.73%{fill:var(--c4)}92.75%,100%{fill:var(--ce)}}.c.ck{fill:var(--c4);animation-name:ck}@keyframes cl{52.67%{fill:var(--c1)}52.69%,100%{fill:var(--ce)}}.c.cl{fill:var(--c1);animation-name:cl}@keyframes cm{52.36%{fill:var(--c2)}52.38%,100%{fill:var(--ce)}}.c.cm{fill:var(--c2);animation-name:cm}@keyframes cn{50.15%{fill:var(--c1)}50.17%,100%{fill:var(--ce)}}.c.cn{fill:var(--c1);animation-name:cn}@keyframes co{50.46%{fill:var(--c2)}50.48%,100%{fill:var(--ce)}}.c.co{fill:var(--c2);animation-name:co}@keyframes cp{94.94%{fill:var(--c4)}94.96%,100%{fill:var(--ce)}}.c.cp{fill:var(--c4);animation-name:cp}@keyframes cq{85.79%{fill:var(--c3)}85.81%,100%{fill:var(--ce)}}.c.cq{fill:var(--c3);animation-name:cq}@keyframes cr{93.05%{fill:var(--c4)}93.07%,100%{fill:var(--ce)}}.c.cr{fill:var(--c4);animation-name:cr}@keyframes cs{55.83%{fill:var(--c2)}55.85%,100%{fill:var(--ce)}}.c.cs{fill:var(--c2);animation-name:cs}@keyframes ct{5.98%{fill:var(--c1)}6%,100%{fill:var(--ce)}}.c.ct{fill:var(--c1);animation-name:ct}@keyframes cu{65.29%{fill:var(--c2)}65.31%,100%{fill:var(--ce)}}.c.cu{fill:var(--c2);animation-name:cu}@keyframes cv{67.5%{fill:var(--c2)}67.52%,100%{fill:var(--ce)}}.c.cv{fill:var(--c2);animation-name:cv}@keyframes cw{28.07%{fill:var(--c1)}28.09%,100%{fill:var(--ce)}}.c.cw{fill:var(--c1);animation-name:cw}@keyframes cx{67.81%{fill:var(--c2)}67.83%,100%{fill:var(--ce)}}.c.cx{fill:var(--c2);animation-name:cx}@keyframes cy{24.91%{fill:var(--c1)}24.93%,100%{fill:var(--ce)}}.c.cy{fill:var(--c1);animation-name:cy}@keyframes cz{26.8%{fill:var(--c1)}26.82%,100%{fill:var(--ce)}}.c.cz{fill:var(--c1);animation-name:cz}@keyframes c10{26.17%{fill:var(--c1)}26.19%,100%{fill:var(--ce)}}.c.c10{fill:var(--c1);animation-name:c10}@keyframes c11{69.39%{fill:var(--c2)}69.41%,100%{fill:var(--ce)}}.c.c11{fill:var(--c2);animation-name:c11}@keyframes c12{23.65%{fill:var(--c1)}23.67%,100%{fill:var(--ce)}}.c.c12{fill:var(--c1);animation-name:c12}@keyframes c13{23.33%{fill:var(--c1)}23.35%,100%{fill:var(--ce)}}.c.c13{fill:var(--c1);animation-name:c13}@keyframes c14{74.12%{fill:var(--c2)}74.14%,100%{fill:var(--ce)}}.c.c14{fill:var(--c2);animation-name:c14}@keyframes c15{34.06%{fill:var(--c1)}34.08%,100%{fill:var(--ce)}}.c.c15{fill:var(--c1);animation-name:c15}@keyframes c16{36.27%{fill:var(--c1)}36.29%,100%{fill:var(--ce)}}.c.c16{fill:var(--c1);animation-name:c16}.u{transform-origin:0 0;transform:scale(0,1);animation:none linear 31700ms infinite}@keyframes u0{1.88%{transform:scale(0.000,1)}1.9%,3.14%{transform:scale(0.050,1)}3.16%,3.78%{transform:scale(0.100,1)}3.8%,5.98%{transform:scale(0.150,1)}6%,9.45%{transform:scale(0.200,1)}9.47%,10.08%{transform:scale(0.250,1)}10.1%,10.4%{transform:scale(0.300,1)}10.42%,10.72%{transform:scale(0.350,1)}10.74%,11.03%{transform:scale(0.400,1)}11.05%,11.66%{transform:scale(0.450,1)}11.68%,12.61%{transform:scale(0.500,1)}12.63%,23.33%{transform:scale(0.550,1)}23.35%,23.65%{transform:scale(0.600,1)}23.67%,24.91%{transform:scale(0.650,1)}24.93%,26.17%{transform:scale(0.700,1)}26.19%,26.8%{transform:scale(0.750,1)}26.82%,28.07%{transform:scale(0.800,1)}28.09%,34.06%{transform:scale(0.850,1)}34.08%,36.27%{transform:scale(0.900,1)}36.29%,50.15%{transform:scale(0.950,1)}50.17%,100%{transform:scale(1.000,1)}}.u.u0{fill:var(--c1);animation-name:u0;transform-origin:0.0px 0}@keyframes u1{50.46%{transform:scale(0.000,1)}50.48%,100%{transform:scale(1.000,1)}}.u.u1{fill:var(--c2);animation-name:u1;transform-origin:394.4px 0}@keyframes u2{52.04%{transform:scale(0.000,1)}52.06%,100%{transform:scale(1.000,1)}}.u.u2{fill:var(--c1);animation-name:u2;transform-origin:414.1px 0}@keyframes u3{52.36%{transform:scale(0.000,1)}52.38%,100%{transform:scale(1.000,1)}}.u.u3{fill:var(--c2);animation-name:u3;transform-origin:433.9px 0}@keyframes u4{52.67%{transform:scale(0.000,1)}52.69%,100%{transform:scale(1.000,1)}}.u.u4{fill:var(--c1);animation-name:u4;transform-origin:453.6px 0}@keyframes u5{52.99%{transform:scale(0.000,1)}53.01%,53.93%{transform:scale(0.111,1)}53.95%,55.83%{transform:scale(0.222,1)}55.85%,57.72%{transform:scale(0.333,1)}57.74%,65.29%{transform:scale(0.444,1)}65.31%,67.5%{transform:scale(0.556,1)}67.52%,67.81%{transform:scale(0.667,1)}67.83%,69.39%{transform:scale(0.778,1)}69.41%,74.12%{transform:scale(0.889,1)}74.14%,100%{transform:scale(1.000,1)}}.u.u5{fill:var(--c2);animation-name:u5;transform-origin:473.3px 0}@keyframes u6{85.79%{transform:scale(0.000,1)}85.81%,87.06%{transform:scale(0.167,1)}87.08%,88.63%{transform:scale(0.333,1)}88.65%,88.95%{transform:scale(0.500,1)}88.97%,89.26%{transform:scale(0.667,1)}89.28%,91.16%{transform:scale(0.833,1)}91.18%,100%{transform:scale(1.000,1)}}.u.u6{fill:var(--c3);animation-name:u6;transform-origin:650.8px 0}@keyframes u7{92.73%{transform:scale(0.000,1)}92.75%,93.05%{transform:scale(0.250,1)}93.07%,94.94%{transform:scale(0.500,1)}94.96%,96.52%{transform:scale(0.750,1)}96.54%,100%{transform:scale(1.000,1)}}.u.u7{fill:var(--c4);animation-name:u7;transform-origin:769.1px 0}.s{shape-rendering:geometricPrecision;fill:var(--cs);animation:none linear 31700ms infinite}@keyframes s0{0%,99.68%{transform:translate(0px,-16px)}0.32%{transform:translate(0px,0px)}1.26%{transform:translate(48px,0px)}1.89%{transform:translate(48px,32px)}2.84%{transform:translate(96px,32px)}3.15%,8.83%,54.26%{transform:translate(96px,16px)}3.47%,8.52%{transform:translate(112px,16px)}3.79%{transform:translate(112px,0px)}4.1%,53.31%{transform:translate(128px,0px)}4.42%{transform:translate(128px,-16px)}5.68%{transform:translate(192px,-16px)}5.99%{transform:translate(192px,0px)}6.31%{transform:translate(176px,0px)}6.62%{transform:translate(176px,-16px)}7.89%{transform:translate(112px,-16px)}9.46%{transform:translate(96px,48px)}9.78%{transform:translate(112px,48px)}10.09%,51.1%{transform:translate(112px,64px)}10.41%,57.1%,95.58%{transform:translate(128px,64px)}10.73%,95.27%{transform:translate(128px,80px)}11.99%,89.59%{transform:translate(64px,80px)}12.3%{transform:translate(64px,96px)}12.62%{transform:translate(48px,96px)}12.93%{transform:translate(48px,112px)}23.03%{transform:translate(560px,112px)}24.29%{transform:translate(560px,48px)}24.92%{transform:translate(528px,48px)}25.24%{transform:translate(528px,32px)}25.55%,29.34%{transform:translate(544px,32px)}25.87%{transform:translate(544px,16px)}26.18%{transform:translate(560px,16px)}26.5%,68.77%{transform:translate(560px,0px)}27.13%{transform:translate(528px,0px)}27.44%{transform:translate(528px,16px)}28.08%{transform:translate(496px,16px)}28.39%{transform:translate(496px,32px)}29.65%{transform:translate(544px,48px)}33.75%{transform:translate(752px,48px)}34.07%{transform:translate(752px,64px)}35.65%{transform:translate(832px,64px)}36.28%{transform:translate(832px,32px)}36.59%{transform:translate(816px,32px)}36.91%{transform:translate(816px,48px)}50.16%{transform:translate(144px,48px)}50.47%,56.78%{transform:translate(144px,64px)}51.74%{transform:translate(112px,32px)}52.37%,56.15%{transform:translate(144px,32px)}52.68%,93.69%{transform:translate(144px,16px)}53%{transform:translate(128px,16px)}53.94%{transform:translate(96px,0px)}55.52%,93.38%{transform:translate(160px,16px)}55.84%{transform:translate(160px,32px)}58.04%{transform:translate(128px,112px)}64.98%{transform:translate(480px,112px)}65.3%{transform:translate(480px,96px)}65.62%{transform:translate(496px,96px)}67.51%{transform:translate(496px,0px)}69.4%{transform:translate(560px,32px)}72.87%{transform:translate(736px,32px)}74.13%{transform:translate(736px,96px)}86.12%{transform:translate(128px,96px)}87.07%{transform:translate(128px,48px)}88.64%{transform:translate(48px,48px)}89.27%{transform:translate(48px,80px)}91.17%{transform:translate(64px,0px)}93.06%{transform:translate(160px,0px)}94.95%{transform:translate(144px,80px)}96.53%{transform:translate(80px,64px)}97.16%{transform:translate(80px,32px)}97.48%{transform:translate(64px,32px)}97.79%{transform:translate(64px,16px)}98.11%{transform:translate(48px,16px)}98.74%{transform:translate(48px,-16px)}}.s.s0{transform:translate(0px,-16px);animation-name:s0}@keyframes s1{0%,99.68%{transform:translate(16px,-16px)}0.32%{transform:translate(0px,-16px)}0.63%{transform:translate(0px,0px)}1.58%{transform:translate(48px,0px)}2.21%{transform:translate(48px,32px)}3.15%{transform:translate(96px,32px)}3.47%,9.15%,54.57%{transform:translate(96px,16px)}3.79%,8.83%{transform:translate(112px,16px)}4.1%{transform:translate(112px,0px)}4.42%,53.63%{transform:translate(128px,0px)}4.73%{transform:translate(128px,-16px)}5.99%{transform:translate(192px,-16px)}6.31%{transform:translate(192px,0px)}6.62%{transform:translate(176px,0px)}6.94%{transform:translate(176px,-16px)}8.2%{transform:translate(112px,-16px)}9.78%{transform:translate(96px,48px)}10.09%{transform:translate(112px,48px)}10.41%,51.42%{transform:translate(112px,64px)}10.73%,57.41%,95.9%{transform:translate(128px,64px)}11.04%,95.58%{transform:translate(128px,80px)}12.3%,89.91%{transform:translate(64px,80px)}12.62%{transform:translate(64px,96px)}12.93%{transform:translate(48px,96px)}13.25%{transform:translate(48px,112px)}23.34%{transform:translate(560px,112px)}24.61%{transform:translate(560px,48px)}25.24%{transform:translate(528px,48px)}25.55%{transform:translate(528px,32px)}25.87%,29.65%{transform:translate(544px,32px)}26.18%{transform:translate(544px,16px)}26.5%{transform:translate(560px,16px)}26.81%,69.09%{transform:translate(560px,0px)}27.44%{transform:translate(528px,0px)}27.76%{transform:translate(528px,16px)}28.39%{transform:translate(496px,16px)}28.71%{transform:translate(496px,32px)}29.97%{transform:translate(544px,48px)}34.07%{transform:translate(752px,48px)}34.38%{transform:translate(752px,64px)}35.96%{transform:translate(832px,64px)}36.59%{transform:translate(832px,32px)}36.91%{transform:translate(816px,32px)}37.22%{transform:translate(816px,48px)}50.47%{transform:translate(144px,48px)}50.79%,57.1%{transform:translate(144px,64px)}52.05%{transform:translate(112px,32px)}52.68%,56.47%{transform:translate(144px,32px)}53%,94.01%{transform:translate(144px,16px)}53.31%{transform:translate(128px,16px)}54.26%{transform:translate(96px,0px)}55.84%,93.69%{transform:translate(160px,16px)}56.15%{transform:translate(160px,32px)}58.36%{transform:translate(128px,112px)}65.3%{transform:translate(480px,112px)}65.62%{transform:translate(480px,96px)}65.93%{transform:translate(496px,96px)}67.82%{transform:translate(496px,0px)}69.72%{transform:translate(560px,32px)}73.19%{transform:translate(736px,32px)}74.45%{transform:translate(736px,96px)}86.44%{transform:translate(128px,96px)}87.38%{transform:translate(128px,48px)}88.96%{transform:translate(48px,48px)}89.59%{transform:translate(48px,80px)}91.48%{transform:translate(64px,0px)}93.38%{transform:translate(160px,0px)}95.27%{transform:translate(144px,80px)}96.85%{transform:translate(80px,64px)}97.48%{transform:translate(80px,32px)}97.79%{transform:translate(64px,32px)}98.11%{transform:translate(64px,16px)}98.42%{transform:translate(48px,16px)}99.05%{transform:translate(48px,-16px)}}.s.s1{transform:translate(16px,-16px);animation-name:s1}@keyframes s2{0%,99.68%{transform:translate(32px,-16px)}0.63%{transform:translate(0px,-16px)}0.95%{transform:translate(0px,0px)}1.89%{transform:translate(48px,0px)}2.52%{transform:translate(48px,32px)}3.47%{transform:translate(96px,32px)}3.79%,9.46%,54.89%{transform:translate(96px,16px)}4.1%,9.15%{transform:translate(112px,16px)}4.42%{transform:translate(112px,0px)}4.73%,53.94%{transform:translate(128px,0px)}5.05%{transform:translate(128px,-16px)}6.31%{transform:translate(192px,-16px)}6.62%{transform:translate(192px,0px)}6.94%{transform:translate(176px,0px)}7.26%{transform:translate(176px,-16px)}8.52%{transform:translate(112px,-16px)}10.09%{transform:translate(96px,48px)}10.41%{transform:translate(112px,48px)}10.73%,51.74%{transform:translate(112px,64px)}11.04%,57.73%,96.21%{transform:translate(128px,64px)}11.36%,95.9%{transform:translate(128px,80px)}12.62%,90.22%{transform:translate(64px,80px)}12.93%{transform:translate(64px,96px)}13.25%{transform:translate(48px,96px)}13.56%{transform:translate(48px,112px)}23.66%{transform:translate(560px,112px)}24.92%{transform:translate(560px,48px)}25.55%{transform:translate(528px,48px)}25.87%{transform:translate(528px,32px)}26.18%,29.97%{transform:translate(544px,32px)}26.5%{transform:translate(544px,16px)}26.81%{transform:translate(560px,16px)}27.13%,69.4%{transform:translate(560px,0px)}27.76%{transform:translate(528px,0px)}28.08%{transform:translate(528px,16px)}28.71%{transform:translate(496px,16px)}29.02%{transform:translate(496px,32px)}30.28%{transform:translate(544px,48px)}34.38%{transform:translate(752px,48px)}34.7%{transform:translate(752px,64px)}36.28%{transform:translate(832px,64px)}36.91%{transform:translate(832px,32px)}37.22%{transform:translate(816px,32px)}37.54%{transform:translate(816px,48px)}50.79%{transform:translate(144px,48px)}51.1%,57.41%{transform:translate(144px,64px)}52.37%{transform:translate(112px,32px)}53%,56.78%{transform:translate(144px,32px)}53.31%,94.32%{transform:translate(144px,16px)}53.63%{transform:translate(128px,16px)}54.57%{transform:translate(96px,0px)}56.15%,94.01%{transform:translate(160px,16px)}56.47%{transform:translate(160px,32px)}58.68%{transform:translate(128px,112px)}65.62%{transform:translate(480px,112px)}65.93%{transform:translate(480px,96px)}66.25%{transform:translate(496px,96px)}68.14%{transform:translate(496px,0px)}70.03%{transform:translate(560px,32px)}73.5%{transform:translate(736px,32px)}74.76%{transform:translate(736px,96px)}86.75%{transform:translate(128px,96px)}87.7%{transform:translate(128px,48px)}89.27%{transform:translate(48px,48px)}89.91%{transform:translate(48px,80px)}91.8%{transform:translate(64px,0px)}93.69%{transform:translate(160px,0px)}95.58%{transform:translate(144px,80px)}97.16%{transform:translate(80px,64px)}97.79%{transform:translate(80px,32px)}98.11%{transform:translate(64px,32px)}98.42%{transform:translate(64px,16px)}98.74%{transform:translate(48px,16px)}99.37%{transform:translate(48px,-16px)}}.s.s2{transform:translate(32px,-16px);animation-name:s2}@keyframes s3{0%,99.68%{transform:translate(48px,-16px)}0.95%{transform:translate(0px,-16px)}1.26%{transform:translate(0px,0px)}2.21%{transform:translate(48px,0px)}2.84%{transform:translate(48px,32px)}3.79%{transform:translate(96px,32px)}4.1%,9.78%,55.21%{transform:translate(96px,16px)}4.42%,9.46%{transform:translate(112px,16px)}4.73%{transform:translate(112px,0px)}5.05%,54.26%{transform:translate(128px,0px)}5.36%{transform:translate(128px,-16px)}6.62%{transform:translate(192px,-16px)}6.94%{transform:translate(192px,0px)}7.26%{transform:translate(176px,0px)}7.57%{transform:translate(176px,-16px)}8.83%{transform:translate(112px,-16px)}10.41%{transform:translate(96px,48px)}10.73%{transform:translate(112px,48px)}11.04%,52.05%{transform:translate(112px,64px)}11.36%,58.04%,96.53%{transform:translate(128px,64px)}11.67%,96.21%{transform:translate(128px,80px)}12.93%,90.54%{transform:translate(64px,80px)}13.25%{transform:translate(64px,96px)}13.56%{transform:translate(48px,96px)}13.88%{transform:translate(48px,112px)}23.97%{transform:translate(560px,112px)}25.24%{transform:translate(560px,48px)}25.87%{transform:translate(528px,48px)}26.18%{transform:translate(528px,32px)}26.5%,30.28%{transform:translate(544px,32px)}26.81%{transform:translate(544px,16px)}27.13%{transform:translate(560px,16px)}27.44%,69.72%{transform:translate(560px,0px)}28.08%{transform:translate(528px,0px)}28.39%{transform:translate(528px,16px)}29.02%{transform:translate(496px,16px)}29.34%{transform:translate(496px,32px)}30.6%{transform:translate(544px,48px)}34.7%{transform:translate(752px,48px)}35.02%{transform:translate(752px,64px)}36.59%{transform:translate(832px,64px)}37.22%{transform:translate(832px,32px)}37.54%{transform:translate(816px,32px)}37.85%{transform:translate(816px,48px)}51.1%{transform:translate(144px,48px)}51.42%,57.73%{transform:translate(144px,64px)}52.68%{transform:translate(112px,32px)}53.31%,57.1%{transform:translate(144px,32px)}53.63%,94.64%{transform:translate(144px,16px)}53.94%{transform:translate(128px,16px)}54.89%{transform:translate(96px,0px)}56.47%,94.32%{transform:translate(160px,16px)}56.78%{transform:translate(160px,32px)}58.99%{transform:translate(128px,112px)}65.93%{transform:translate(480px,112px)}66.25%{transform:translate(480px,96px)}66.56%{transform:translate(496px,96px)}68.45%{transform:translate(496px,0px)}70.35%{transform:translate(560px,32px)}73.82%{transform:translate(736px,32px)}75.08%{transform:translate(736px,96px)}87.07%{transform:translate(128px,96px)}88.01%{transform:translate(128px,48px)}89.59%{transform:translate(48px,48px)}90.22%{transform:translate(48px,80px)}92.11%{transform:translate(64px,0px)}94.01%{transform:translate(160px,0px)}95.9%{transform:translate(144px,80px)}97.48%{transform:translate(80px,64px)}98.11%{transform:translate(80px,32px)}98.42%{transform:translate(64px,32px)}98.74%{transform:translate(64px,16px)}99.05%{transform:translate(48px,16px)}}.s.s3{transform:translate(48px,-16px);animation-name:s3}</style><rect class="c" x="2" y="2" rx="2" ry="2"/><rect class="c" x="2" y="18" rx="2" ry="2"/><rect class="c" x="2" y="34" rx="2" ry="2"/><rect class="c" x="2" y="50" rx="2" ry="2"/><rect class="c" x="2" y="66" rx="2" ry="2"/><rect class="c" x="2" y="82" rx="2" ry="2"/><rect class="c" x="2" y="98" rx="2" ry="2"/><rect class="c" x="18" y="2" rx="2" ry="2"/><rect class="c" x="18" y="18" rx="2" ry="2"/><rect class="c" x="18" y="34" rx="2" ry="2"/><rect class="c" x="18" y="50" rx="2" ry="2"/><rect class="c" x="18" y="66" rx="2" ry="2"/><rect class="c" x="18" y="82" rx="2" ry="2"/><rect class="c" x="18" y="98" rx="2" ry="2"/><rect class="c" x="34" y="2" rx="2" ry="2"/><rect class="c" x="34" y="18" rx="2" ry="2"/><rect class="c" x="34" y="34" rx="2" ry="2"/><rect class="c" x="34" y="50" rx="2" ry="2"/><rect class="c" x="34" y="66" rx="2" ry="2"/><rect class="c" x="34" y="82" rx="2" ry="2"/><rect class="c" x="34" y="98" rx="2" ry="2"/><rect class="c" x="50" y="2" rx="2" ry="2"/><rect class="c" x="50" y="18" rx="2" ry="2"/><rect class="c c0" x="50" y="34" rx="2" ry="2"/><rect class="c c1" x="50" y="50" rx="2" ry="2"/><rect class="c c2" x="50" y="66" rx="2" ry="2"/><rect class="c c3" x="50" y="82" rx="2" ry="2"/><rect class="c c4" x="50" y="98" rx="2" ry="2"/><rect class="c c5" x="66" y="2" rx="2" ry="2"/><rect class="c" x="66" y="18" rx="2" ry="2"/><rect class="c" x="66" y="34" rx="2" ry="2"/><rect class="c" x="66" y="50" rx="2" ry="2"/><rect class="c" x="66" y="66" rx="2" ry="2"/><rect class="c" x="66" y="82" rx="2" ry="2"/><rect class="c" x="66" y="98" rx="2" ry="2"/><rect class="c" x="82" y="2" rx="2" ry="2"/><rect class="c" x="82" y="18" rx="2" ry="2"/><rect class="c" x="82" y="34" rx="2" ry="2"/><rect class="c" x="82" y="50" rx="2" ry="2"/><rect class="c c6" x="82" y="66" rx="2" ry="2"/><rect class="c c7" x="82" y="82" rx="2" ry="2"/><rect class="c" x="82" y="98" rx="2" ry="2"/><rect class="c c8" x="98" y="2" rx="2" ry="2"/><rect class="c c9" x="98" y="18" rx="2" ry="2"/><rect class="c" x="98" y="34" rx="2" ry="2"/><rect class="c ca" x="98" y="50" rx="2" ry="2"/><rect class="c" x="98" y="66" rx="2" ry="2"/><rect class="c" x="98" y="82" rx="2" ry="2"/><rect class="c" x="98" y="98" rx="2" ry="2"/><rect class="c cb" x="114" y="2" rx="2" ry="2"/><rect class="c" x="114" y="18" rx="2" ry="2"/><rect class="c" x="114" y="34" rx="2" ry="2"/><rect class="c" x="114" y="50" rx="2" ry="2"/><rect class="c cc" x="114" y="66" rx="2" ry="2"/><rect class="c cd" x="114" y="82" rx="2" ry="2"/><rect class="c" x="114" y="98" rx="2" ry="2"/><rect class="c" x="130" y="2" rx="2" ry="2"/><rect class="c ce" x="130" y="18" rx="2" ry="2"/><rect class="c cf" x="130" y="34" rx="2" ry="2"/><rect class="c cg" x="130" y="50" rx="2" ry="2"/><rect class="c ch" x="130" y="66" rx="2" ry="2"/><rect class="c ci" x="130" y="82" rx="2" ry="2"/><rect class="c cj" x="130" y="98" rx="2" ry="2"/><rect class="c ck" x="146" y="2" rx="2" ry="2"/><rect class="c cl" x="146" y="18" rx="2" ry="2"/><rect class="c cm" x="146" y="34" rx="2" ry="2"/><rect class="c cn" x="146" y="50" rx="2" ry="2"/><rect class="c co" x="146" y="66" rx="2" ry="2"/><rect class="c cp" x="146" y="82" rx="2" ry="2"/><rect class="c cq" x="146" y="98" rx="2" ry="2"/><rect class="c cr" x="162" y="2" rx="2" ry="2"/><rect class="c" x="162" y="18" rx="2" ry="2"/><rect class="c cs" x="162" y="34" rx="2" ry="2"/><rect class="c" x="162" y="50" rx="2" ry="2"/><rect class="c" x="162" y="66" rx="2" ry="2"/><rect class="c" x="162" y="82" rx="2" ry="2"/><rect class="c" x="162" y="98" rx="2" ry="2"/><rect class="c" x="178" y="2" rx="2" ry="2"/><rect class="c" x="178" y="18" rx="2" ry="2"/><rect class="c" x="178" y="34" rx="2" ry="2"/><rect class="c" x="178" y="50" rx="2" ry="2"/><rect class="c" x="178" y="66" rx="2" ry="2"/><rect class="c" x="178" y="82" rx="2" ry="2"/><rect class="c" x="178" y="98" rx="2" ry="2"/><rect class="c ct" x="194" y="2" rx="2" ry="2"/><rect class="c" x="194" y="18" rx="2" ry="2"/><rect class="c" x="194" y="34" rx="2" ry="2"/><rect class="c" x="194" y="50" rx="2" ry="2"/><rect class="c" x="194" y="66" rx="2" ry="2"/><rect class="c" x="194" y="82" rx="2" ry="2"/><rect class="c" x="194" y="98" rx="2" ry="2"/><rect class="c" x="210" y="2" rx="2" ry="2"/><rect class="c" x="210" y="18" rx="2" ry="2"/><rect class="c" x="210" y="34" rx="2" ry="2"/><rect class="c" x="210" y="50" rx="2" ry="2"/><rect class="c" x="210" y="66" rx="2" ry="2"/><rect class="c" x="210" y="82" rx="2" ry="2"/><rect class="c" x="210" y="98" rx="2" ry="2"/><rect class="c" x="226" y="2" rx="2" ry="2"/><rect class="c" x="226" y="18" rx="2" ry="2"/><rect class="c" x="226" y="34" rx="2" ry="2"/><rect class="c" x="226" y="50" rx="2" ry="2"/><rect class="c" x="226" y="66" rx="2" ry="2"/><rect class="c" x="226" y="82" rx="2" ry="2"/><rect class="c" x="226" y="98" rx="2" ry="2"/><rect class="c" x="242" y="2" rx="2" ry="2"/><rect class="c" x="242" y="18" rx="2" ry="2"/><rect class="c" x="242" y="34" rx="2" ry="2"/><rect class="c" x="242" y="50" rx="2" ry="2"/><rect class="c" x="242" y="66" rx="2" ry="2"/><rect class="c" x="242" y="82" rx="2" ry="2"/><rect class="c" x="242" y="98" rx="2" ry="2"/><rect class="c" x="258" y="2" rx="2" ry="2"/><rect class="c" x="258" y="18" rx="2" ry="2"/><rect class="c" x="258" y="34" rx="2" ry="2"/><rect class="c" x="258" y="50" rx="2" ry="2"/><rect class="c" x="258" y="66" rx="2" ry="2"/><rect class="c" x="258" y="82" rx="2" ry="2"/><rect class="c" x="258" y="98" rx="2" ry="2"/><rect class="c" x="274" y="2" rx="2" ry="2"/><rect class="c" x="274" y="18" rx="2" ry="2"/><rect class="c" x="274" y="34" rx="2" ry="2"/><rect class="c" x="274" y="50" rx="2" ry="2"/><rect class="c" x="274" y="66" rx="2" ry="2"/><rect class="c" x="274" y="82" rx="2" ry="2"/><rect class="c" x="274" y="98" rx="2" ry="2"/><rect class="c" x="290" y="2" rx="2" ry="2"/><rect class="c" x="290" y="18" rx="2" ry="2"/><rect class="c" x="290" y="34" rx="2" ry="2"/><rect class="c" x="290" y="50" rx="2" ry="2"/><rect class="c" x="290" y="66" rx="2" ry="2"/><rect class="c" x="290" y="82" rx="2" ry="2"/><rect class="c" x="290" y="98" rx="2" ry="2"/><rect class="c" x="306" y="2" rx="2" ry="2"/><rect class="c" x="306" y="18" rx="2" ry="2"/><rect class="c" x="306" y="34" rx="2" ry="2"/><rect class="c" x="306" y="50" rx="2" ry="2"/><rect class="c" x="306" y="66" rx="2" ry="2"/><rect class="c" x="306" y="82" rx="2" ry="2"/><rect class="c" x="306" y="98" rx="2" ry="2"/><rect class="c" x="322" y="2" rx="2" ry="2"/><rect class="c" x="322" y="18" rx="2" ry="2"/><rect class="c" x="322" y="34" rx="2" ry="2"/><rect class="c" x="322" y="50" rx="2" ry="2"/><rect class="c" x="322" y="66" rx="2" ry="2"/><rect class="c" x="322" y="82" rx="2" ry="2"/><rect class="c" x="322" y="98" rx="2" ry="2"/><rect class="c" x="338" y="2" rx="2" ry="2"/><rect class="c" x="338" y="18" rx="2" ry="2"/><rect class="c" x="338" y="34" rx="2" ry="2"/><rect class="c" x="338" y="50" rx="2" ry="2"/><rect class="c" x="338" y="66" rx="2" ry="2"/><rect class="c" x="338" y="82" rx="2" ry="2"/><rect class="c" x="338" y="98" rx="2" ry="2"/><rect class="c" x="354" y="2" rx="2" ry="2"/><rect class="c" x="354" y="18" rx="2" ry="2"/><rect class="c" x="354" y="34" rx="2" ry="2"/><rect class="c" x="354" y="50" rx="2" ry="2"/><rect class="c" x="354" y="66" rx="2" ry="2"/><rect class="c" x="354" y="82" rx="2" ry="2"/><rect class="c" x="354" y="98" rx="2" ry="2"/><rect class="c" x="370" y="2" rx="2" ry="2"/><rect class="c" x="370" y="18" rx="2" ry="2"/><rect class="c" x="370" y="34" rx="2" ry="2"/><rect class="c" x="370" y="50" rx="2" ry="2"/><rect class="c" x="370" y="66" rx="2" ry="2"/><rect class="c" x="370" y="82" rx="2" ry="2"/><rect class="c" x="370" y="98" rx="2" ry="2"/><rect class="c" x="386" y="2" rx="2" ry="2"/><rect class="c" x="386" y="18" rx="2" ry="2"/><rect class="c" x="386" y="34" rx="2" ry="2"/><rect class="c" x="386" y="50" rx="2" ry="2"/><rect class="c" x="386" y="66" rx="2" ry="2"/><rect class="c" x="386" y="82" rx="2" ry="2"/><rect class="c" x="386" y="98" rx="2" ry="2"/><rect class="c" x="402" y="2" rx="2" ry="2"/><rect class="c" x="402" y="18" rx="2" ry="2"/><rect class="c" x="402" y="34" rx="2" ry="2"/><rect class="c" x="402" y="50" rx="2" ry="2"/><rect class="c" x="402" y="66" rx="2" ry="2"/><rect class="c" x="402" y="82" rx="2" ry="2"/><rect class="c" x="402" y="98" rx="2" ry="2"/><rect class="c" x="418" y="2" rx="2" ry="2"/><rect class="c" x="418" y="18" rx="2" ry="2"/><rect class="c" x="418" y="34" rx="2" ry="2"/><rect class="c" x="418" y="50" rx="2" ry="2"/><rect class="c" x="418" y="66" rx="2" ry="2"/><rect class="c" x="418" y="82" rx="2" ry="2"/><rect class="c" x="418" y="98" rx="2" ry="2"/><rect class="c" x="434" y="2" rx="2" ry="2"/><rect class="c" x="434" y="18" rx="2" ry="2"/><rect class="c" x="434" y="34" rx="2" ry="2"/><rect class="c" x="434" y="50" rx="2" ry="2"/><rect class="c" x="434" y="66" rx="2" ry="2"/><rect class="c" x="434" y="82" rx="2" ry="2"/><rect class="c" x="434" y="98" rx="2" ry="2"/><rect class="c" x="450" y="2" rx="2" ry="2"/><rect class="c" x="450" y="18" rx="2" ry="2"/><rect class="c" x="450" y="34" rx="2" ry="2"/><rect class="c" x="450" y="50" rx="2" ry="2"/><rect class="c" x="450" y="66" rx="2" ry="2"/><rect class="c" x="450" y="82" rx="2" ry="2"/><rect class="c" x="450" y="98" rx="2" ry="2"/><rect class="c" x="466" y="2" rx="2" ry="2"/><rect class="c" x="466" y="18" rx="2" ry="2"/><rect class="c" x="466" y="34" rx="2" ry="2"/><rect class="c" x="466" y="50" rx="2" ry="2"/><rect class="c" x="466" y="66" rx="2" ry="2"/><rect class="c" x="466" y="82" rx="2" ry="2"/><rect class="c" x="466" y="98" rx="2" ry="2"/><rect class="c" x="482" y="2" rx="2" ry="2"/><rect class="c" x="482" y="18" rx="2" ry="2"/><rect class="c" x="482" y="34" rx="2" ry="2"/><rect class="c" x="482" y="50" rx="2" ry="2"/><rect class="c" x="482" y="66" rx="2" ry="2"/><rect class="c" x="482" y="82" rx="2" ry="2"/><rect class="c cu" x="482" y="98" rx="2" ry="2"/><rect class="c cv" x="498" y="2" rx="2" ry="2"/><rect class="c cw" x="498" y="18" rx="2" ry="2"/><rect class="c" x="498" y="34" rx="2" ry="2"/><rect class="c" x="498" y="50" rx="2" ry="2"/><rect class="c" x="498" y="66" rx="2" ry="2"/><rect class="c" x="498" y="82" rx="2" ry="2"/><rect class="c" x="498" y="98" rx="2" ry="2"/><rect class="c cx" x="514" y="2" rx="2" ry="2"/><rect class="c" x="514" y="18" rx="2" ry="2"/><rect class="c" x="514" y="34" rx="2" ry="2"/><rect class="c" x="514" y="50" rx="2" ry="2"/><rect class="c" x="514" y="66" rx="2" ry="2"/><rect class="c" x="514" y="82" rx="2" ry="2"/><rect class="c" x="514" y="98" rx="2" ry="2"/><rect class="c" x="530" y="2" rx="2" ry="2"/><rect class="c" x="530" y="18" rx="2" ry="2"/><rect class="c" x="530" y="34" rx="2" ry="2"/><rect class="c cy" x="530" y="50" rx="2" ry="2"/><rect class="c" x="530" y="66" rx="2" ry="2"/><rect class="c" x="530" y="82" rx="2" ry="2"/><rect class="c" x="530" y="98" rx="2" ry="2"/><rect class="c cz" x="546" y="2" rx="2" ry="2"/><rect class="c" x="546" y="18" rx="2" ry="2"/><rect class="c" x="546" y="34" rx="2" ry="2"/><rect class="c" x="546" y="50" rx="2" ry="2"/><rect class="c" x="546" y="66" rx="2" ry="2"/><rect class="c" x="546" y="82" rx="2" ry="2"/><rect class="c" x="546" y="98" rx="2" ry="2"/><rect class="c" x="562" y="2" rx="2" ry="2"/><rect class="c c10" x="562" y="18" rx="2" ry="2"/><rect class="c c11" x="562" y="34" rx="2" ry="2"/><rect class="c" x="562" y="50" rx="2" ry="2"/><rect class="c" x="562" y="66" rx="2" ry="2"/><rect class="c c12" x="562" y="82" rx="2" ry="2"/><rect class="c c13" x="562" y="98" rx="2" ry="2"/><rect class="c" x="578" y="2" rx="2" ry="2"/><rect class="c" x="578" y="18" rx="2" ry="2"/><rect class="c" x="578" y="34" rx="2" ry="2"/><rect class="c" x="578" y="50" rx="2" ry="2"/><rect class="c" x="578" y="66" rx="2" ry="2"/><rect class="c" x="578" y="82" rx="2" ry="2"/><rect class="c" x="578" y="98" rx="2" ry="2"/><rect class="c" x="594" y="2" rx="2" ry="2"/><rect class="c" x="594" y="18" rx="2" ry="2"/><rect class="c" x="594" y="34" rx="2" ry="2"/><rect class="c" x="594" y="50" rx="2" ry="2"/><rect class="c" x="594" y="66" rx="2" ry="2"/><rect class="c" x="594" y="82" rx="2" ry="2"/><rect class="c" x="594" y="98" rx="2" ry="2"/><rect class="c" x="610" y="2" rx="2" ry="2"/><rect class="c" x="610" y="18" rx="2" ry="2"/><rect class="c" x="610" y="34" rx="2" ry="2"/><rect class="c" x="610" y="50" rx="2" ry="2"/><rect class="c" x="610" y="66" rx="2" ry="2"/><rect class="c" x="610" y="82" rx="2" ry="2"/><rect class="c" x="610" y="98" rx="2" ry="2"/><rect class="c" x="626" y="2" rx="2" ry="2"/><rect class="c" x="626" y="18" rx="2" ry="2"/><rect class="c" x="626" y="34" rx="2" ry="2"/><rect class="c" x="626" y="50" rx="2" ry="2"/><rect class="c" x="626" y="66" rx="2" ry="2"/><rect class="c" x="626" y="82" rx="2" ry="2"/><rect class="c" x="626" y="98" rx="2" ry="2"/><rect class="c" x="642" y="2" rx="2" ry="2"/><rect class="c" x="642" y="18" rx="2" ry="2"/><rect class="c" x="642" y="34" rx="2" ry="2"/><rect class="c" x="642" y="50" rx="2" ry="2"/><rect class="c" x="642" y="66" rx="2" ry="2"/><rect class="c" x="642" y="82" rx="2" ry="2"/><rect class="c" x="642" y="98" rx="2" ry="2"/><rect class="c" x="658" y="2" rx="2" ry="2"/><rect class="c" x="658" y="18" rx="2" ry="2"/><rect class="c" x="658" y="34" rx="2" ry="2"/><rect class="c" x="658" y="50" rx="2" ry="2"/><rect class="c" x="658" y="66" rx="2" ry="2"/><rect class="c" x="658" y="82" rx="2" ry="2"/><rect class="c" x="658" y="98" rx="2" ry="2"/><rect class="c" x="674" y="2" rx="2" ry="2"/><rect class="c" x="674" y="18" rx="2" ry="2"/><rect class="c" x="674" y="34" rx="2" ry="2"/><rect class="c" x="674" y="50" rx="2" ry="2"/><rect class="c" x="674" y="66" rx="2" ry="2"/><rect class="c" x="674" y="82" rx="2" ry="2"/><rect class="c" x="674" y="98" rx="2" ry="2"/><rect class="c" x="690" y="2" rx="2" ry="2"/><rect class="c" x="690" y="18" rx="2" ry="2"/><rect class="c" x="690" y="34" rx="2" ry="2"/><rect class="c" x="690" y="50" rx="2" ry="2"/><rect class="c" x="690" y="66" rx="2" ry="2"/><rect class="c" x="690" y="82" rx="2" ry="2"/><rect class="c" x="690" y="98" rx="2" ry="2"/><rect class="c" x="706" y="2" rx="2" ry="2"/><rect class="c" x="706" y="18" rx="2" ry="2"/><rect class="c" x="706" y="34" rx="2" ry="2"/><rect class="c" x="706" y="50" rx="2" ry="2"/><rect class="c" x="706" y="66" rx="2" ry="2"/><rect class="c" x="706" y="82" rx="2" ry="2"/><rect class="c" x="706" y="98" rx="2" ry="2"/><rect class="c" x="722" y="2" rx="2" ry="2"/><rect class="c" x="722" y="18" rx="2" ry="2"/><rect class="c" x="722" y="34" rx="2" ry="2"/><rect class="c" x="722" y="50" rx="2" ry="2"/><rect class="c" x="722" y="66" rx="2" ry="2"/><rect class="c" x="722" y="82" rx="2" ry="2"/><rect class="c" x="722" y="98" rx="2" ry="2"/><rect class="c" x="738" y="2" rx="2" ry="2"/><rect class="c" x="738" y="18" rx="2" ry="2"/><rect class="c" x="738" y="34" rx="2" ry="2"/><rect class="c" x="738" y="50" rx="2" ry="2"/><rect class="c" x="738" y="66" rx="2" ry="2"/><rect class="c" x="738" y="82" rx="2" ry="2"/><rect class="c c14" x="738" y="98" rx="2" ry="2"/><rect class="c" x="754" y="2" rx="2" ry="2"/><rect class="c" x="754" y="18" rx="2" ry="2"/><rect class="c" x="754" y="34" rx="2" ry="2"/><rect class="c" x="754" y="50" rx="2" ry="2"/><rect class="c c15" x="754" y="66" rx="2" ry="2"/><rect class="c" x="754" y="82" rx="2" ry="2"/><rect class="c" x="754" y="98" rx="2" ry="2"/><rect class="c" x="770" y="2" rx="2" ry="2"/><rect class="c" x="770" y="18" rx="2" ry="2"/><rect class="c" x="770" y="34" rx="2" ry="2"/><rect class="c" x="770" y="50" rx="2" ry="2"/><rect class="c" x="770" y="66" rx="2" ry="2"/><rect class="c" x="770" y="82" rx="2" ry="2"/><rect class="c" x="770" y="98" rx="2" ry="2"/><rect class="c" x="786" y="2" rx="2" ry="2"/><rect class="c" x="786" y="18" rx="2" ry="2"/><rect class="c" x="786" y="34" rx="2" ry="2"/><rect class="c" x="786" y="50" rx="2" ry="2"/><rect class="c" x="786" y="66" rx="2" ry="2"/><rect class="c" x="786" y="82" rx="2" ry="2"/><rect class="c" x="786" y="98" rx="2" ry="2"/><rect class="c" x="802" y="2" rx="2" ry="2"/><rect class="c" x="802" y="18" rx="2" ry="2"/><rect class="c" x="802" y="34" rx="2" ry="2"/><rect class="c" x="802" y="50" rx="2" ry="2"/><rect class="c" x="802" y="66" rx="2" ry="2"/><rect class="c" x="802" y="82" rx="2" ry="2"/><rect class="c" x="802" y="98" rx="2" ry="2"/><rect class="c" x="818" y="2" rx="2" ry="2"/><rect class="c" x="818" y="18" rx="2" ry="2"/><rect class="c" x="818" y="34" rx="2" ry="2"/><rect class="c" x="818" y="50" rx="2" ry="2"/><rect class="c" x="818" y="66" rx="2" ry="2"/><rect class="c" x="818" y="82" rx="2" ry="2"/><rect class="c" x="818" y="98" rx="2" ry="2"/><rect class="c" x="834" y="2" rx="2" ry="2"/><rect class="c" x="834" y="18" rx="2" ry="2"/><rect class="c c16" x="834" y="34" rx="2" ry="2"/><rect class="c" x="834" y="50" rx="2" ry="2"/><rect class="c" x="834" y="66" rx="2" ry="2"/><rect class="c" x="834" y="82" rx="2" ry="2"/><rect class="c" x="834" y="98" rx="2" ry="2"/><rect class="u u0" height="12" width="395.0" x="0.0" y="144"/><rect class="u u1" height="12" width="20.3" x="394.4" y="144"/><rect class="u u2" height="12" width="20.3" x="414.1" y="144"/><rect class="u u3" height="12" width="20.3" x="433.9" y="144"/><rect class="u u4" height="12" width="20.3" x="453.6" y="144"/><rect class="u u5" height="12" width="178.1" x="473.3" y="144"/><rect class="u u6" height="12" width="118.9" x="650.8" y="144"/><rect class="u u7" height="12" width="79.5" x="769.1" y="144"/><rect class="s s0" x="0.8" y="0.8" width="14.4" height="14.4" rx="4.5" ry="4.5"/><rect class="s s1" x="1.8" y="1.8" width="12.3" height="12.3" rx="4.1" ry="4.1"/><rect class="s s2" x="2.6" y="2.6" width="10.8" height="10.8" rx="3.6" ry="3.6"/><rect class="s s3" x="3.0" y="3.0" width="9.9" height="9.9" rx="3.3" ry="3.3"/></svg>