<svg viewBox="-16 -32 880 192" width="880" height="192" xmlns="http://www.w3.org/2000/svg"><desc>Generated with https://github.com/Platane/snk</desc><style>:root{--cb:#1b1f230a;--cs:#ffc71f;--ce:#2b3137;--c0:#2b3137;--c1:#1e4f36;--c2:#194d33;--c3:#237a37;--c4:#26a641}.c{shape-rendering:geometricPrecision;fill:var(--ce);stroke-width:1px;stroke:var(--cb);animation:none 31300ms linear infinite;width:12px;height:12px}@keyframes c0{0.63%{fill:var(--c1)}0.65%,100%{fill:var(--ce)}}.c.c0{fill:var(--c1);animation-name:c0}@keyframes c1{1.91%{fill:var(--c1)}1.93%,100%{fill:var(--ce)}}.c.c1{fill:var(--c1);animation-name:c1}@keyframes c2{3.82%{fill:var(--c1)}3.84%,100%{fill:var(--ce)}}.c.c2{fill:var(--c1);animation-name:c2}@keyframes c3{87.85%{fill:var(--c3)}87.87%,100%{fill:var(--ce)}}.c.c3{fill:var(--c3);animation-name:c3}@keyframes c4{88.17%{fill:var(--c3)}88.19%,100%{fill:var(--ce)}}.c.c4{fill:var(--c3);animation-name:c4}@keyframes c5{88.49%{fill:var(--c3)}88.51%,100%{fill:var(--ce)}}.c.c5{fill:var(--c3);animation-name:c5}@keyframes c6{14.69%{fill:var(--c1)}14.71%,100%{fill:var(--ce)}}.c.c6{fill:var(--c1);animation-name:c6}@keyframes c7{90.41%{fill:var(--c3)}90.43%,100%{fill:var(--ce)}}.c.c7{fill:var(--c3);animation-name:c7}@keyframes c8{95.84%{fill:var(--c4)}95.86%,100%{fill:var(--ce)}}.c.c8{fill:var(--c4);animation-name:c8}@keyframes c9{13.73%{fill:var(--c1)}13.75%,100%{fill:var(--ce)}}.c.c9{fill:var(--c1);animation-name:c9}@keyframes ca{52.71%{fill:var(--c2)}52.73%,100%{fill:var(--ce)}}.c.ca{fill:var(--c2);animation-name:ca}@keyframes cb{5.1%{fill:var(--c1)}5.12%,100%{fill:var(--ce)}}.c.cb{fill:var(--c1);animation-name:cb}@keyframes cc{11.49%{fill:var(--c1)}11.51%,100%{fill:var(--ce)}}.c.cc{fill:var(--c1);animation-name:cc}@keyframes cd{5.74%{fill:var(--c1)}5.76%,100%{fill:var(--ce)}}.c.cd{fill:var(--c1);animation-name:cd}@keyframes ce{12.13%{fill:var(--c1)}12.15%,100%{fill:var(--ce)}}.c.ce{fill:var(--c1);animation-name:ce}@keyframes cf{13.09%{fill:var(--c1)}13.11%,100%{fill:var(--ce)}}.c.cf{fill:var(--c1);animation-name:cf}@keyframes cg{51.75%{fill:var(--c2)}51.77%,100%{fill:var(--ce)}}.c.cg{fill:var(--c2);animation-name:cg}@keyframes ch{50.79%{fill:var(--c1)}50.81%,100%{fill:var(--ce)}}.c.ch{fill:var(--c1);animation-name:ch}@keyframes ci{86.25%{fill:var(--c3)}86.27%,100%{fill:var(--ce)}}.c.ci{fill:var(--c3);animation-name:ci}@keyframes cj{12.45%{fill:var(--c1)}12.47%,100%{fill:var(--ce)}}.c.cj{fill:var(--c1);animation-name:cj}@keyframes ck{12.77%{fill:var(--c1)}12.79%,100%{fill:var(--ce)}}.c.ck{fill:var(--c1);animation-name:ck}@keyframes cl{56.54%{fill:var(--c2)}56.56%,100%{fill:var(--ce)}}.c.cl{fill:var(--c2);animation-name:cl}@keyframes cm{92%{fill:var(--c4)}92.02%,100%{fill:var(--ce)}}.c.cm{fill:var(--c4);animation-name:cm}@keyframes cn{51.43%{fill:var(--c1)}51.45%,100%{fill:var(--ce)}}.c.cn{fill:var(--c1);animation-name:cn}@keyframes co{51.11%{fill:var(--c2)}51.13%,100%{fill:var(--ce)}}.c.co{fill:var(--c2);animation-name:co}@keyframes cp{48.87%{fill:var(--c1)}48.89%,100%{fill:var(--ce)}}.c.cp{fill:var(--c1);animation-name:cp}@keyframes cq{49.19%{fill:var(--c2)}49.21%,100%{fill:var(--ce)}}.c.cq{fill:var(--c2);animation-name:cq}@keyframes cr{94.24%{fill:var(--c4)}94.26%,100%{fill:var(--ce)}}.c.cr{fill:var(--c4);animation-name:cr}@keyframes cs{84.97%{fill:var(--c3)}84.99%,100%{fill:var(--ce)}}.c.cs{fill:var(--c3);animation-name:cs}@keyframes ct{92.32%{fill:var(--c4)}92.34%,100%{fill:var(--ce)}}.c.ct{fill:var(--c4);animation-name:ct}@keyframes cu{54.62%{fill:var(--c2)}54.64%,100%{fill:var(--ce)}}.c.cu{fill:var(--c2);animation-name:cu}@keyframes cv{7.98%{fill:var(--c1)}8%,100%{fill:var(--ce)}}.c.cv{fill:var(--c1);animation-name:cv}@keyframes cw{64.21%{fill:var(--c2)}64.23%,100%{fill:var(--ce)}}.c.cw{fill:var(--c2);animation-name:cw}@keyframes cx{66.44%{fill:var(--c2)}66.46%,100%{fill:var(--ce)}}.c.cx{fill:var(--c2);animation-name:cx}@keyframes cy{30.34%{fill:var(--c1)}30.36%,100%{fill:var(--ce)}}.c.cy{fill:var(--c1);animation-name:cy}@keyframes cz{66.76%{fill:var(--c2)}66.78%,100%{fill:var(--ce)}}.c.cz{fill:var(--c2);animation-name:cz}@keyframes c10{27.15%{fill:var(--c1)}27.17%,100%{fill:var(--ce)}}.c.c10{fill:var(--c1);animation-name:c10}@keyframes c11{29.06%{fill:var(--c1)}29.08%,100%{fill:var(--ce)}}.c.c11{fill:var(--c1);animation-name:c11}@keyframes c12{28.42%{fill:var(--c1)}28.44%,100%{fill:var(--ce)}}.c.c12{fill:var(--c1);animation-name:c12}@keyframes c13{68.36%{fill:var(--c2)}68.38%,100%{fill:var(--ce)}}.c.c13{fill:var(--c2);animation-name:c13}@keyframes c14{25.87%{fill:var(--c1)}25.89%,100%{fill:var(--ce)}}.c.c14{fill:var(--c1);animation-name:c14}@keyframes c15{25.55%{fill:var(--c1)}25.57%,100%{fill:var(--ce)}}.c.c15{fill:var(--c1);animation-name:c15}@keyframes c16{73.15%{fill:var(--c2)}73.17%,100%{fill:var(--ce)}}.c.c16{fill:var(--c2);animation-name:c16}@keyframes c17{36.41%{fill:var(--c1)}36.43%,100%{fill:var(--ce)}}.c.c17{fill:var(--c1);animation-name:c17}.u{transform-origin:0 0;transform:scale(0,1);animation:none linear 31300ms infinite}@keyframes u0{0.63%{transform:scale(0.000,1)}0.65%,1.91%{transform:scale(0.048,1)}1.93%,3.82%{transform:scale(0.095,1)}3.84%,5.1%{transform:scale(0.143,1)}5.12%,5.74%{transform:scale(0.190,1)}5.76%,7.98%{transform:scale(0.238,1)}8%,11.49%{transform:scale(0.286,1)}11.51%,12.13%{transform:scale(0.333,1)}12.15%,12.45%{transform:scale(0.381,1)}12.47%,12.77%{transform:scale(0.429,1)}12.79%,13.09%{transform:scale(0.476,1)}13.11%,13.73%{transform:scale(0.524,1)}13.75%,14.69%{transform:scale(0.571,1)}14.71%,25.55%{transform:scale(0.619,1)}25.57%,25.87%{transform:scale(0.667,1)}25.89%,27.15%{transform:scale(0.714,1)}27.17%,28.42%{transform:scale(0.762,1)}28.44%,29.06%{transform:scale(0.810,1)}29.08%,30.34%{transform:scale(0.857,1)}30.36%,36.41%{transform:scale(0.905,1)}36.43%,48.87%{transform:scale(0.952,1)}48.89%,100%{transform:scale(1.000,1)}}.u.u0{fill:var(--c1);animation-name:u0;transform-origin:0.0px 0}@keyframes u1{49.19%{transform:scale(0.000,1)}49.21%,100%{transform:scale(1.000,1)}}.u.u1{fill:var(--c2);animation-name:u1;transform-origin:404.7px 0}@keyframes u2{50.79%{transform:scale(0.000,1)}50.81%,100%{transform:scale(1.000,1)}}.u.u2{fill:var(--c1);animation-name:u2;transform-origin:424.0px 0}@keyframes u3{51.11%{transform:scale(0.000,1)}51.13%,100%{transform:scale(1.000,1)}}.u.u3{fill:var(--c2);animation-name:u3;transform-origin:443.3px 0}@keyframes u4{51.43%{transform:scale(0.000,1)}51.45%,100%{transform:scale(1.000,1)}}.u.u4{fill:var(--c1);animation-name:u4;transform-origin:462.5px 0}@keyframes u5{51.75%{transform:scale(0.000,1)}51.77%,52.71%{transform:scale(0.111,1)}52.73%,54.62%{transform:scale(0.222,1)}54.64%,56.54%{transform:scale(0.333,1)}56.56%,64.21%{transform:scale(0.444,1)}64.23%,66.44%{transform:scale(0.556,1)}66.46%,66.76%{transform:scale(0.667,1)}66.78%,68.36%{transform:scale(0.778,1)}68.38%,73.15%{transform:scale(0.889,1)}73.17%,100%{transform:scale(1.000,1)}}.u.u5{fill:var(--c2);animation-name:u5;transform-origin:481.8px 0}@keyframes u6{84.97%{transform:scale(0.000,1)}84.99%,86.25%{transform:scale(0.167,1)}86.27%,87.85%{transform:scale(0.333,1)}87.87%,88.17%{transform:scale(0.500,1)}88.19%,88.49%{transform:scale(0.667,1)}88.51%,90.41%{transform:scale(0.833,1)}90.43%,100%{transform:scale(1.000,1)}}.u.u6{fill:var(--c3);animation-name:u6;transform-origin:655.3px 0}@keyframes u7{92%{transform:scale(0.000,1)}92.02%,92.32%{transform:scale(0.250,1)}92.34%,94.24%{transform:scale(0.500,1)}94.26%,95.84%{transform:scale(0.750,1)}95.86%,100%{transform:scale(1.000,1)}}.u.u7{fill:var(--c4);animation-name:u7;transform-origin:770.9px 0}.s{shape-rendering:geometricPrecision;fill:var(--cs);animation:none linear 31300ms infinite}@keyframes s0{0%,99.68%{transform:translate(0px,-16px)}0.32%{transform:translate(0px,0px)}0.64%{transform:translate(16px,0px)}1.92%{transform:translate(16px,64px)}2.88%{transform:translate(64px,64px)}3.51%{transform:translate(64px,32px)}4.79%{transform:translate(128px,32px)}5.11%,10.86%,53.04%{transform:translate(128px,16px)}5.43%,10.54%{transform:translate(144px,16px)}5.75%{transform:translate(144px,0px)}6.07%,52.08%{transform:translate(160px,0px)}6.39%{transform:translate(160px,-16px)}7.67%{transform:translate(224px,-16px)}7.99%{transform:translate(224px,0px)}8.31%{transform:translate(208px,0px)}8.63%{transform:translate(208px,-16px)}9.9%{transform:translate(144px,-16px)}11.5%{transform:translate(128px,48px)}11.82%{transform:translate(144px,48px)}12.14%,49.84%{transform:translate(144px,64px)}12.46%,55.91%,94.89%{transform:translate(160px,64px)}12.78%,94.57%{transform:translate(160px,80px)}14.06%,88.82%{transform:translate(96px,80px)}14.38%{transform:translate(96px,96px)}14.7%{transform:translate(80px,96px)}15.02%{transform:translate(80px,112px)}25.24%{transform:translate(592px,112px)}26.52%{transform:translate(592px,48px)}27.16%{transform:translate(560px,48px)}27.48%{transform:translate(560px,32px)}27.8%,31.63%{transform:translate(576px,32px)}28.12%{transform:translate(576px,16px)}28.43%{transform:translate(592px,16px)}28.75%,67.73%{transform:translate(592px,0px)}29.39%{transform:translate(560px,0px)}29.71%{transform:translate(560px,16px)}30.35%{transform:translate(528px,16px)}30.67%{transform:translate(528px,32px)}31.95%{transform:translate(576px,48px)}36.1%{transform:translate(784px,48px)}36.42%{transform:translate(784px,64px)}48.24%{transform:translate(192px,64px)}48.56%{transform:translate(192px,48px)}48.88%{transform:translate(176px,48px)}49.2%,55.59%{transform:translate(176px,64px)}50.48%{transform:translate(144px,32px)}51.12%,54.95%{transform:translate(176px,32px)}51.44%,92.97%{transform:translate(176px,16px)}51.76%{transform:translate(160px,16px)}52.72%{transform:translate(128px,0px)}54.31%,92.65%{transform:translate(192px,16px)}54.63%{transform:translate(192px,32px)}56.87%{transform:translate(160px,112px)}63.9%{transform:translate(512px,112px)}64.22%{transform:translate(512px,96px)}64.54%{transform:translate(528px,96px)}66.45%{transform:translate(528px,0px)}68.37%{transform:translate(592px,32px)}71.88%{transform:translate(768px,32px)}73.16%{transform:translate(768px,96px)}85.3%{transform:translate(160px,96px)}86.26%{transform:translate(160px,48px)}87.86%{transform:translate(80px,48px)}88.5%{transform:translate(80px,80px)}90.42%{transform:translate(96px,0px)}92.33%{transform:translate(192px,0px)}94.25%{transform:translate(176px,80px)}95.85%{transform:translate(112px,64px)}96.49%{transform:translate(112px,32px)}96.81%{transform:translate(96px,32px)}97.12%{transform:translate(96px,16px)}97.76%{transform:translate(64px,16px)}98.4%{transform:translate(64px,-16px)}}.s.s0{transform:translate(0px,-16px);animation-name:s0}@keyframes s1{0%,99.68%{transform:translate(16px,-16px)}0.32%{transform:translate(0px,-16px)}0.64%{transform:translate(0px,0px)}0.96%{transform:translate(16px,0px)}2.24%{transform:translate(16px,64px)}3.19%{transform:translate(64px,64px)}3.83%{transform:translate(64px,32px)}5.11%{transform:translate(128px,32px)}5.43%,11.18%,53.35%{transform:translate(128px,16px)}5.75%,10.86%{transform:translate(144px,16px)}6.07%{transform:translate(144px,0px)}6.39%,52.4%{transform:translate(160px,0px)}6.71%{transform:translate(160px,-16px)}7.99%{transform:translate(224px,-16px)}8.31%{transform:translate(224px,0px)}8.63%{transform:translate(208px,0px)}8.95%{transform:translate(208px,-16px)}10.22%{transform:translate(144px,-16px)}11.82%{transform:translate(128px,48px)}12.14%{transform:translate(144px,48px)}12.46%,50.16%{transform:translate(144px,64px)}12.78%,56.23%,95.21%{transform:translate(160px,64px)}13.1%,94.89%{transform:translate(160px,80px)}14.38%,89.14%{transform:translate(96px,80px)}14.7%{transform:translate(96px,96px)}15.02%{transform:translate(80px,96px)}15.34%{transform:translate(80px,112px)}25.56%{transform:translate(592px,112px)}26.84%{transform:translate(592px,48px)}27.48%{transform:translate(560px,48px)}27.8%{transform:translate(560px,32px)}28.12%,31.95%{transform:translate(576px,32px)}28.43%{transform:translate(576px,16px)}28.75%{transform:translate(592px,16px)}29.07%,68.05%{transform:translate(592px,0px)}29.71%{transform:translate(560px,0px)}30.03%{transform:translate(560px,16px)}30.67%{transform:translate(528px,16px)}30.99%{transform:translate(528px,32px)}32.27%{transform:translate(576px,48px)}36.42%{transform:translate(784px,48px)}36.74%{transform:translate(784px,64px)}48.56%{transform:translate(192px,64px)}48.88%{transform:translate(192px,48px)}49.2%{transform:translate(176px,48px)}49.52%,55.91%{transform:translate(176px,64px)}50.8%{transform:translate(144px,32px)}51.44%,55.27%{transform:translate(176px,32px)}51.76%,93.29%{transform:translate(176px,16px)}52.08%{transform:translate(160px,16px)}53.04%{transform:translate(128px,0px)}54.63%,92.97%{transform:translate(192px,16px)}54.95%{transform:translate(192px,32px)}57.19%{transform:translate(160px,112px)}64.22%{transform:translate(512px,112px)}64.54%{transform:translate(512px,96px)}64.86%{transform:translate(528px,96px)}66.77%{transform:translate(528px,0px)}68.69%{transform:translate(592px,32px)}72.2%{transform:translate(768px,32px)}73.48%{transform:translate(768px,96px)}85.62%{transform:translate(160px,96px)}86.58%{transform:translate(160px,48px)}88.18%{transform:translate(80px,48px)}88.82%{transform:translate(80px,80px)}90.73%{transform:translate(96px,0px)}92.65%{transform:translate(192px,0px)}94.57%{transform:translate(176px,80px)}96.17%{transform:translate(112px,64px)}96.81%{transform:translate(112px,32px)}97.12%{transform:translate(96px,32px)}97.44%{transform:translate(96px,16px)}98.08%{transform:translate(64px,16px)}98.72%{transform:translate(64px,-16px)}}.s.s1{transform:translate(16px,-16px);animation-name:s1}@keyframes s2{0%,99.68%{transform:translate(32px,-16px)}0.64%{transform:translate(0px,-16px)}0.96%{transform:translate(0px,0px)}1.28%{transform:translate(16px,0px)}2.56%{transform:translate(16px,64px)}3.51%{transform:translate(64px,64px)}4.15%{transform:translate(64px,32px)}5.43%{transform:translate(128px,32px)}5.75%,11.5%,53.67%{transform:translate(128px,16px)}6.07%,11.18%{transform:translate(144px,16px)}6.39%{transform:translate(144px,0px)}6.71%,52.72%{transform:translate(160px,0px)}7.03%{transform:translate(160px,-16px)}8.31%{transform:translate(224px,-16px)}8.63%{transform:translate(224px,0px)}8.95%{transform:translate(208px,0px)}9.27%{transform:translate(208px,-16px)}10.54%{transform:translate(144px,-16px)}12.14%{transform:translate(128px,48px)}12.46%{transform:translate(144px,48px)}12.78%,50.48%{transform:translate(144px,64px)}13.1%,56.55%,95.53%{transform:translate(160px,64px)}13.42%,95.21%{transform:translate(160px,80px)}14.7%,89.46%{transform:translate(96px,80px)}15.02%{transform:translate(96px,96px)}15.34%{transform:translate(80px,96px)}15.65%{transform:translate(80px,112px)}25.88%{transform:translate(592px,112px)}27.16%{transform:translate(592px,48px)}27.8%{transform:translate(560px,48px)}28.12%{transform:translate(560px,32px)}28.43%,32.27%{transform:translate(576px,32px)}28.75%{transform:translate(576px,16px)}29.07%{transform:translate(592px,16px)}29.39%,68.37%{transform:translate(592px,0px)}30.03%{transform:translate(560px,0px)}30.35%{transform:translate(560px,16px)}30.99%{transform:translate(528px,16px)}31.31%{transform:translate(528px,32px)}32.59%{transform:translate(576px,48px)}36.74%{transform:translate(784px,48px)}37.06%{transform:translate(784px,64px)}48.88%{transform:translate(192px,64px)}49.2%{transform:translate(192px,48px)}49.52%{transform:translate(176px,48px)}49.84%,56.23%{transform:translate(176px,64px)}51.12%{transform:translate(144px,32px)}51.76%,55.59%{transform:translate(176px,32px)}52.08%,93.61%{transform:translate(176px,16px)}52.4%{transform:translate(160px,16px)}53.35%{transform:translate(128px,0px)}54.95%,93.29%{transform:translate(192px,16px)}55.27%{transform:translate(192px,32px)}57.51%{transform:translate(160px,112px)}64.54%{transform:translate(512px,112px)}64.86%{transform:translate(512px,96px)}65.18%{transform:translate(528px,96px)}67.09%{transform:translate(528px,0px)}69.01%{transform:translate(592px,32px)}72.52%{transform:translate(768px,32px)}73.8%{transform:translate(768px,96px)}85.94%{transform:translate(160px,96px)}86.9%{transform:translate(160px,48px)}88.5%{transform:translate(80px,48px)}89.14%{transform:translate(80px,80px)}91.05%{transform:translate(96px,0px)}92.97%{transform:translate(192px,0px)}94.89%{transform:translate(176px,80px)}96.49%{transform:translate(112px,64px)}97.12%{transform:translate(112px,32px)}97.44%{transform:translate(96px,32px)}97.76%{transform:translate(96px,16px)}98.4%{transform:translate(64px,16px)}99.04%{transform:translate(64px,-16px)}}.s.s2{transform:translate(32px,-16px);animation-name:s2}@keyframes s3{0%,99.68%{transform:translate(48px,-16px)}0.96%{transform:translate(0px,-16px)}1.28%{transform:translate(0px,0px)}1.6%{transform:translate(16px,0px)}2.88%{transform:translate(16px,64px)}3.83%{transform:translate(64px,64px)}4.47%{transform:translate(64px,32px)}5.75%{transform:translate(128px,32px)}6.07%,11.82%,53.99%{transform:translate(128px,16px)}6.39%,11.5%{transform:translate(144px,16px)}6.71%{transform:translate(144px,0px)}7.03%,53.04%{transform:translate(160px,0px)}7.35%{transform:translate(160px,-16px)}8.63%{transform:translate(224px,-16px)}8.95%{transform:translate(224px,0px)}9.27%{transform:translate(208px,0px)}9.58%{transform:translate(208px,-16px)}10.86%{transform:translate(144px,-16px)}12.46%{transform:translate(128px,48px)}12.78%{transform:translate(144px,48px)}13.1%,50.8%{transform:translate(144px,64px)}13.42%,56.87%,95.85%{transform:translate(160px,64px)}13.74%,95.53%{transform:translate(160px,80px)}15.02%,89.78%{transform:translate(96px,80px)}15.34%{transform:translate(96px,96px)}15.65%{transform:translate(80px,96px)}15.97%{transform:translate(80px,112px)}26.2%{transform:translate(592px,112px)}27.48%{transform:translate(592px,48px)}28.12%{transform:translate(560px,48px)}28.43%{transform:translate(560px,32px)}28.75%,32.59%{transform:translate(576px,32px)}29.07%{transform:translate(576px,16px)}29.39%{transform:translate(592px,16px)}29.71%,68.69%{transform:translate(592px,0px)}30.35%{transform:translate(560px,0px)}30.67%{transform:translate(560px,16px)}31.31%{transform:translate(528px,16px)}31.63%{transform:translate(528px,32px)}32.91%{transform:translate(576px,48px)}37.06%{transform:translate(784px,48px)}37.38%{transform:translate(784px,64px)}49.2%{transform:translate(192px,64px)}49.52%{transform:translate(192px,48px)}49.84%{transform:translate(176px,48px)}50.16%,56.55%{transform:translate(176px,64px)}51.44%{transform:translate(144px,32px)}52.08%,55.91%{transform:translate(176px,32px)}52.4%,93.93%{transform:translate(176px,16px)}52.72%{transform:translate(160px,16px)}53.67%{transform:translate(128px,0px)}55.27%,93.61%{transform:translate(192px,16px)}55.59%{transform:translate(192px,32px)}57.83%{transform:translate(160px,112px)}64.86%{transform:translate(512px,112px)}65.18%{transform:translate(512px,96px)}65.5%{transform:translate(528px,96px)}67.41%{transform:translate(528px,0px)}69.33%{transform:translate(592px,32px)}72.84%{transform:translate(768px,32px)}74.12%{transform:translate(768px,96px)}86.26%{transform:translate(160px,96px)}87.22%{transform:translate(160px,48px)}88.82%{transform:translate(80px,48px)}89.46%{transform:translate(80px,80px)}91.37%{transform:translate(96px,0px)}93.29%{transform:translate(192px,0px)}95.21%{transform:translate(176px,80px)}96.81%{transform:translate(112px,64px)}97.44%{transform:translate(112px,32px)}97.76%{transform:translate(96px,32px)}98.08%{transform:translate(96px,16px)}98.72%{transform:translate(64px,16px)}99.36%{transform:translate(64px,-16px)}}.s.s3{transform:translate(48px,-16px);animation-name:s3}</style><rect class="c" x="2" y="2" rx="2" ry="2"/><rect class="c" x="2" y="18" rx="2" ry="2"/><rect class="c" x="2" y="34" rx="2" ry="2"/><rect class="c" x="2" y="50" rx="2" ry="2"/><rect class="c" x="2" y="66" rx="2" ry="2"/><rect class="c" x="2" y="82" rx="2" ry="2"/><rect class="c" x="2" y="98" rx="2" ry="2"/><rect class="c c0" x="18" y="2" rx="2" ry="2"/><rect class="c" x="18" y="18" rx="2" ry="2"/><rect class="c" x="18" y="34" rx="2" ry="2"/><rect class="c" x="18" y="50" rx="2" ry="2"/><rect class="c c1" x="18" y="66" rx="2" ry="2"/><rect class="c" x="18" y="82" rx="2" ry="2"/><rect class="c" x="18" y="98" rx="2" ry="2"/><rect class="c" x="34" y="2" rx="2" ry="2"/><rect class="c" x="34" y="18" rx="2" ry="2"/><rect class="c" x="34" y="34" rx="2" ry="2"/><rect class="c" x="34" y="50" rx="2" ry="2"/><rect class="c" x="34" y="66" rx="2" ry="2"/><rect class="c" x="34" y="82" rx="2" ry="2"/><rect class="c" x="34" y="98" rx="2" ry="2"/><rect class="c" x="50" y="2" rx="2" ry="2"/><rect class="c" x="50" y="18" rx="2" ry="2"/><rect class="c" x="50" y="34" rx="2" ry="2"/><rect class="c" x="50" y="50" rx="2" ry="2"/><rect class="c" x="50" y="66" rx="2" ry="2"/><rect class="c" x="50" y="82" rx="2" ry="2"/><rect class="c" x="50" y="98" rx="2" ry="2"/><rect class="c" x="66" y="2" rx="2" ry="2"/><rect class="c" x="66" y="18" rx="2" ry="2"/><rect class="c" x="66" y="34" rx="2" ry="2"/><rect class="c" x="66" y="50" rx="2" ry="2"/><rect class="c" x="66" y="66" rx="2" ry="2"/><rect class="c" x="66" y="82" rx="2" ry="2"/><rect class="c" x="66" y="98" rx="2" ry="2"/><rect class="c" x="82" y="2" rx="2" ry="2"/><rect class="c" x="82" y="18" rx="2" ry="2"/><rect class="c c2" x="82" y="34" rx="2" ry="2"/><rect class="c c3" x="82" y="50" rx="2" ry="2"/><rect class="c c4" x="82" y="66" rx="2" ry="2"/><rect class="c c5" x="82" y="82" rx="2" ry="2"/><rect class="c c6" x="82" y="98" rx="2" ry="2"/><rect class="c c7" x="98" y="2" rx="2" ry="2"/><rect class="c" x="98" y="18" rx="2" ry="2"/><rect class="c" x="98" y="34" rx="2" ry="2"/><rect class="c" x="98" y="50" rx="2" ry="2"/><rect class="c" x="98" y="66" rx="2" ry="2"/><rect class="c" x="98" y="82" rx="2" ry="2"/><rect class="c" x="98" y="98" rx="2" ry="2"/><rect class="c" x="114" y="2" rx="2" ry="2"/><rect class="c" x="114" y="18" rx="2" ry="2"/><rect class="c" x="114" y="34" rx="2" ry="2"/><rect class="c" x="114" y="50" rx="2" ry="2"/><rect class="c c8" x="114" y="66" rx="2" ry="2"/><rect class="c c9" x="114" y="82" rx="2" ry="2"/><rect class="c" x="114" y="98" rx="2" ry="2"/><rect class="c ca" x="130" y="2" rx="2" ry="2"/><rect class="c cb" x="130" y="18" rx="2" ry="2"/><rect class="c" x="130" y="34" rx="2" ry="2"/><rect class="c cc" x="130" y="50" rx="2" ry="2"/><rect class="c" x="130" y="66" rx="2" ry="2"/><rect class="c" x="130" y="82" rx="2" ry="2"/><rect class="c" x="130" y="98" rx="2" ry="2"/><rect class="c cd" x="146" y="2" rx="2" ry="2"/><rect class="c" x="146" y="18" rx="2" ry="2"/><rect class="c" x="146" y="34" rx="2" ry="2"/><rect class="c" x="146" y="50" rx="2" ry="2"/><rect class="c ce" x="146" y="66" rx="2" ry="2"/><rect class="c cf" x="146" y="82" rx="2" ry="2"/><rect class="c" x="146" y="98" rx="2" ry="2"/><rect class="c" x="162" y="2" rx="2" ry="2"/><rect class="c cg" x="162" y="18" rx="2" ry="2"/><rect class="c ch" x="162" y="34" rx="2" ry="2"/><rect class="c ci" x="162" y="50" rx="2" ry="2"/><rect class="c cj" x="162" y="66" rx="2" ry="2"/><rect class="c ck" x="162" y="82" rx="2" ry="2"/><rect class="c cl" x="162" y="98" rx="2" ry="2"/><rect class="c cm" x="178" y="2" rx="2" ry="2"/><rect class="c cn" x="178" y="18" rx="2" ry="2"/><rect class="c co" x="178" y="34" rx="2" ry="2"/><rect class="c cp" x="178" y="50" rx="2" ry="2"/><rect class="c cq" x="178" y="66" rx="2" ry="2"/><rect class="c cr" x="178" y="82" rx="2" ry="2"/><rect class="c cs" x="178" y="98" rx="2" ry="2"/><rect class="c ct" x="194" y="2" rx="2" ry="2"/><rect class="c" x="194" y="18" rx="2" ry="2"/><rect class="c cu" x="194" y="34" rx="2" ry="2"/><rect class="c" x="194" y="50" rx="2" ry="2"/><rect class="c" x="194" y="66" rx="2" ry="2"/><rect class="c" x="194" y="82" rx="2" ry="2"/><rect class="c" x="194" y="98" rx="2" ry="2"/><rect class="c" x="210" y="2" rx="2" ry="2"/><rect class="c" x="210" y="18" rx="2" ry="2"/><rect class="c" x="210" y="34" rx="2" ry="2"/><rect class="c" x="210" y="50" rx="2" ry="2"/><rect class="c" x="210" y="66" rx="2" ry="2"/><rect class="c" x="210" y="82" rx="2" ry="2"/><rect class="c" x="210" y="98" rx="2" ry="2"/><rect class="c cv" x="226" y="2" rx="2" ry="2"/><rect class="c" x="226" y="18" rx="2" ry="2"/><rect class="c" x="226" y="34" rx="2" ry="2"/><rect class="c" x="226" y="50" rx="2" ry="2"/><rect class="c" x="226" y="66" rx="2" ry="2"/><rect class="c" x="226" y="82" rx="2" ry="2"/><rect class="c" x="226" y="98" rx="2" ry="2"/><rect class="c" x="242" y="2" rx="2" ry="2"/><rect class="c" x="242" y="18" rx="2" ry="2"/><rect class="c" x="242" y="34" rx="2" ry="2"/><rect class="c" x="242" y="50" rx="2" ry="2"/><rect class="c" x="242" y="66" rx="2" ry="2"/><rect class="c" x="242" y="82" rx="2" ry="2"/><rect class="c" x="242" y="98" rx="2" ry="2"/><rect class="c" x="258" y="2" rx="2" ry="2"/><rect class="c" x="258" y="18" rx="2" ry="2"/><rect class="c" x="258" y="34" rx="2" ry="2"/><rect class="c" x="258" y="50" rx="2" ry="2"/><rect class="c" x="258" y="66" rx="2" ry="2"/><rect class="c" x="258" y="82" rx="2" ry="2"/><rect class="c" x="258" y="98" rx="2" ry="2"/><rect class="c" x="274" y="2" rx="2" ry="2"/><rect class="c" x="274" y="18" rx="2" ry="2"/><rect class="c" x="274" y="34" rx="2" ry="2"/><rect class="c" x="274" y="50" rx="2" ry="2"/><rect class="c" x="274" y="66" rx="2" ry="2"/><rect class="c" x="274" y="82" rx="2" ry="2"/><rect class="c" x="274" y="98" rx="2" ry="2"/><rect class="c" x="290" y="2" rx="2" ry="2"/><rect class="c" x="290" y="18" rx="2" ry="2"/><rect class="c" x="290" y="34" rx="2" ry="2"/><rect class="c" x="290" y="50" rx="2" ry="2"/><rect class="c" x="290" y="66" rx="2" ry="2"/><rect class="c" x="290" y="82" rx="2" ry="2"/><rect class="c" x="290" y="98" rx="2" ry="2"/><rect class="c" x="306" y="2" rx="2" ry="2"/><rect class="c" x="306" y="18" rx="2" ry="2"/><rect class="c" x="306" y="34" rx="2" ry="2"/><rect class="c" x="306" y="50" rx="2" ry="2"/><rect class="c" x="306" y="66" rx="2" ry="2"/><rect class="c" x="306" y="82" rx="2" ry="2"/><rect class="c" x="306" y="98" rx="2" ry="2"/><rect class="c" x="322" y="2" rx="2" ry="2"/><rect class="c" x="322" y="18" rx="2" ry="2"/><rect class="c" x="322" y="34" rx="2" ry="2"/><rect class="c" x="322" y="50" rx="2" ry="2"/><rect class="c" x="322" y="66" rx="2" ry="2"/><rect class="c" x="322" y="82" rx="2" ry="2"/><rect class="c" x="322" y="98" rx="2" ry="2"/><rect class="c" x="338" y="2" rx="2" ry="2"/><rect class="c" x="338" y="18" rx="2" ry="2"/><rect class="c" x="338" y="34" rx="2" ry="2"/><rect class="c" x="338" y="50" rx="2" ry="2"/><rect class="c" x="338" y="66" rx="2" ry="2"/><rect class="c" x="338" y="82" rx="2" ry="2"/><rect class="c" x="338" y="98" rx="2" ry="2"/><rect class="c" x="354" y="2" rx="2" ry="2"/><rect class="c" x="354" y="18" rx="2" ry="2"/><rect class="c" x="354" y="34" rx="2" ry="2"/><rect class="c" x="354" y="50" rx="2" ry="2"/><rect class="c" x="354" y="66" rx="2" ry="2"/><rect class="c" x="354" y="82" rx="2" ry="2"/><rect class="c" x="354" y="98" rx="2" ry="2"/><rect class="c" x="370" y="2" rx="2" ry="2"/><rect class="c" x="370" y="18" rx="2" ry="2"/><rect class="c" x="370" y="34" rx="2" ry="2"/><rect class="c" x="370" y="50" rx="2" ry="2"/><rect class="c" x="370" y="66" rx="2" ry="2"/><rect class="c" x="370" y="82" rx="2" ry="2"/><rect class="c" x="370" y="98" rx="2" ry="2"/><rect class="c" x="386" y="2" rx="2" ry="2"/><rect class="c" x="386" y="18" rx="2" ry="2"/><rect class="c" x="386" y="34" rx="2" ry="2"/><rect class="c" x="386" y="50" rx="2" ry="2"/><rect class="c" x="386" y="66" rx="2" ry="2"/><rect class="c" x="386" y="82" rx="2" ry="2"/><rect class="c" x="386" y="98" rx="2" ry="2"/><rect class="c" x="402" y="2" rx="2" ry="2"/><rect class="c" x="402" y="18" rx="2" ry="2"/><rect class="c" x="402" y="34" rx="2" ry="2"/><rect class="c" x="402" y="50" rx="2" ry="2"/><rect class="c" x="402" y="66" rx="2" ry="2"/><rect class="c" x="402" y="82" rx="2" ry="2"/><rect class="c" x="402" y="98" rx="2" ry="2"/><rect class="c" x="418" y="2" rx="2" ry="2"/><rect class="c" x="418" y="18" rx="2" ry="2"/><rect class="c" x="418" y="34" rx="2" ry="2"/><rect class="c" x="418" y="50" rx="2" ry="2"/><rect class="c" x="418" y="66" rx="2" ry="2"/><rect class="c" x="418" y="82" rx="2" ry="2"/><rect class="c" x="418" y="98" rx="2" ry="2"/><rect class="c" x="434" y="2" rx="2" ry="2"/><rect class="c" x="434" y="18" rx="2" ry="2"/><rect class="c" x="434" y="34" rx="2" ry="2"/><rect class="c" x="434" y="50" rx="2" ry="2"/><rect class="c" x="434" y="66" rx="2" ry="2"/><rect class="c" x="434" y="82" rx="2" ry="2"/><rect class="c" x="434" y="98" rx="2" ry="2"/><rect class="c" x="450" y="2" rx="2" ry="2"/><rect class="c" x="450" y="18" rx="2" ry="2"/><rect class="c" x="450" y="34" rx="2" ry="2"/><rect class="c" x="450" y="50" rx="2" ry="2"/><rect class="c" x="450" y="66" rx="2" ry="2"/><rect class="c" x="450" y="82" rx="2" ry="2"/><rect class="c" x="450" y="98" rx="2" ry="2"/><rect class="c" x="466" y="2" rx="2" ry="2"/><rect class="c" x="466" y="18" rx="2" ry="2"/><rect class="c" x="466" y="34" rx="2" ry="2"/><rect class="c" x="466" y="50" rx="2" ry="2"/><rect class="c" x="466" y="66" rx="2" ry="2"/><rect class="c" x="466" y="82" rx="2" ry="2"/><rect class="c" x="466" y="98" rx="2" ry="2"/><rect class="c" x="482" y="2" rx="2" ry="2"/><rect class="c" x="482" y="18" rx="2" ry="2"/><rect class="c" x="482" y="34" rx="2" ry="2"/><rect class="c" x="482" y="50" rx="2" ry="2"/><rect class="c" x="482" y="66" rx="2" ry="2"/><rect class="c" x="482" y="82" rx="2" ry="2"/><rect class="c" x="482" y="98" rx="2" ry="2"/><rect class="c" x="498" y="2" rx="2" ry="2"/><rect class="c" x="498" y="18" rx="2" ry="2"/><rect class="c" x="498" y="34" rx="2" ry="2"/><rect class="c" x="498" y="50" rx="2" ry="2"/><rect class="c" x="498" y="66" rx="2" ry="2"/><rect class="c" x="498" y="82" rx="2" ry="2"/><rect class="c" x="498" y="98" rx="2" ry="2"/><rect class="c" x="514" y="2" rx="2" ry="2"/><rect class="c" x="514" y="18" rx="2" ry="2"/><rect class="c" x="514" y="34" rx="2" ry="2"/><rect class="c" x="514" y="50" rx="2" ry="2"/><rect class="c" x="514" y="66" rx="2" ry="2"/><rect class="c" x="514" y="82" rx="2" ry="2"/><rect class="c cw" x="514" y="98" rx="2" ry="2"/><rect class="c cx" x="530" y="2" rx="2" ry="2"/><rect class="c cy" x="530" y="18" rx="2" ry="2"/><rect class="c" x="530" y="34" rx="2" ry="2"/><rect class="c" x="530" y="50" rx="2" ry="2"/><rect class="c" x="530" y="66" rx="2" ry="2"/><rect class="c" x="530" y="82" rx="2" ry="2"/><rect class="c" x="530" y="98" rx="2" ry="2"/><rect class="c cz" x="546" y="2" rx="2" ry="2"/><rect class="c" x="546" y="18" rx="2" ry="2"/><rect class="c" x="546" y="34" rx="2" ry="2"/><rect class="c" x="546" y="50" rx="2" ry="2"/><rect class="c" x="546" y="66" rx="2" ry="2"/><rect class="c" x="546" y="82" rx="2" ry="2"/><rect class="c" x="546" y="98" rx="2" ry="2"/><rect class="c" x="562" y="2" rx="2" ry="2"/><rect class="c" x="562" y="18" rx="2" ry="2"/><rect class="c" x="562" y="34" rx="2" ry="2"/><rect class="c c10" x="562" y="50" rx="2" ry="2"/><rect class="c" x="562" y="66" rx="2" ry="2"/><rect class="c" x="562" y="82" rx="2" ry="2"/><rect class="c" x="562" y="98" rx="2" ry="2"/><rect class="c c11" x="578" y="2" rx="2" ry="2"/><rect class="c" x="578" y="18" rx="2" ry="2"/><rect class="c" x="578" y="34" rx="2" ry="2"/><rect class="c" x="578" y="50" rx="2" ry="2"/><rect class="c" x="578" y="66" rx="2" ry="2"/><rect class="c" x="578" y="82" rx="2" ry="2"/><rect class="c" x="578" y="98" rx="2" ry="2"/><rect class="c" x="594" y="2" rx="2" ry="2"/><rect class="c c12" x="594" y="18" rx="2" ry="2"/><rect class="c c13" x="594" y="34" rx="2" ry="2"/><rect class="c" x="594" y="50" rx="2" ry="2"/><rect class="c" x="594" y="66" rx="2" ry="2"/><rect class="c c14" x="594" y="82" rx="2" ry="2"/><rect class="c c15" x="594" y="98" rx="2" ry="2"/><rect class="c" x="610" y="2" rx="2" ry="2"/><rect class="c" x="610" y="18" rx="2" ry="2"/><rect class="c" x="610" y="34" rx="2" ry="2"/><rect class="c" x="610" y="50" rx="2" ry="2"/><rect class="c" x="610" y="66" rx="2" ry="2"/><rect class="c" x="610" y="82" rx="2" ry="2"/><rect class="c" x="610" y="98" rx="2" ry="2"/><rect class="c" x="626" y="2" rx="2" ry="2"/><rect class="c" x="626" y="18" rx="2" ry="2"/><rect class="c" x="626" y="34" rx="2" ry="2"/><rect class="c" x="626" y="50" rx="2" ry="2"/><rect class="c" x="626" y="66" rx="2" ry="2"/><rect class="c" x="626" y="82" rx="2" ry="2"/><rect class="c" x="626" y="98" rx="2" ry="2"/><rect class="c" x="642" y="2" rx="2" ry="2"/><rect class="c" x="642" y="18" rx="2" ry="2"/><rect class="c" x="642" y="34" rx="2" ry="2"/><rect class="c" x="642" y="50" rx="2" ry="2"/><rect class="c" x="642" y="66" rx="2" ry="2"/><rect class="c" x="642" y="82" rx="2" ry="2"/><rect class="c" x="642" y="98" rx="2" ry="2"/><rect class="c" x="658" y="2" rx="2" ry="2"/><rect class="c" x="658" y="18" rx="2" ry="2"/><rect class="c" x="658" y="34" rx="2" ry="2"/><rect class="c" x="658" y="50" rx="2" ry="2"/><rect class="c" x="658" y="66" rx="2" ry="2"/><rect class="c" x="658" y="82" rx="2" ry="2"/><rect class="c" x="658" y="98" rx="2" ry="2"/><rect class="c" x="674" y="2" rx="2" ry="2"/><rect class="c" x="674" y="18" rx="2" ry="2"/><rect class="c" x="674" y="34" rx="2" ry="2"/><rect class="c" x="674" y="50" rx="2" ry="2"/><rect class="c" x="674" y="66" rx="2" ry="2"/><rect class="c" x="674" y="82" rx="2" ry="2"/><rect class="c" x="674" y="98" rx="2" ry="2"/><rect class="c" x="690" y="2" rx="2" ry="2"/><rect class="c" x="690" y="18" rx="2" ry="2"/><rect class="c" x="690" y="34" rx="2" ry="2"/><rect class="c" x="690" y="50" rx="2" ry="2"/><rect class="c" x="690" y="66" rx="2" ry="2"/><rect class="c" x="690" y="82" rx="2" ry="2"/><rect class="c" x="690" y="98" rx="2" ry="2"/><rect class="c" x="706" y="2" rx="2" ry="2"/><rect class="c" x="706" y="18" rx="2" ry="2"/><rect class="c" x="706" y="34" rx="2" ry="2"/><rect class="c" x="706" y="50" rx="2" ry="2"/><rect class="c" x="706" y="66" rx="2" ry="2"/><rect class="c" x="706" y="82" rx="2" ry="2"/><rect class="c" x="706" y="98" rx="2" ry="2"/><rect class="c" x="722" y="2" rx="2" ry="2"/><rect class="c" x="722" y="18" rx="2" ry="2"/><rect class="c" x="722" y="34" rx="2" ry="2"/><rect class="c" x="722" y="50" rx="2" ry="2"/><rect class="c" x="722" y="66" rx="2" ry="2"/><rect class="c" x="722" y="82" rx="2" ry="2"/><rect class="c" x="722" y="98" rx="2" ry="2"/><rect class="c" x="738" y="2" rx="2" ry="2"/><rect class="c" x="738" y="18" rx="2" ry="2"/><rect class="c" x="738" y="34" rx="2" ry="2"/><rect class="c" x="738" y="50" rx="2" ry="2"/><rect class="c" x="738" y="66" rx="2" ry="2"/><rect class="c" x="738" y="82" rx="2" ry="2"/><rect class="c" x="738" y="98" rx="2" ry="2"/><rect class="c" x="754" y="2" rx="2" ry="2"/><rect class="c" x="754" y="18" rx="2" ry="2"/><rect class="c" x="754" y="34" rx="2" ry="2"/><rect class="c" x="754" y="50" rx="2" ry="2"/><rect class="c" x="754" y="66" rx="2" ry="2"/><rect class="c" x="754" y="82" rx="2" ry="2"/><rect class="c" x="754" y="98" rx="2" ry="2"/><rect class="c" x="770" y="2" rx="2" ry="2"/><rect class="c" x="770" y="18" rx="2" ry="2"/><rect class="c" x="770" y="34" rx="2" ry="2"/><rect class="c" x="770" y="50" rx="2" ry="2"/><rect class="c" x="770" y="66" rx="2" ry="2"/><rect class="c" x="770" y="82" rx="2" ry="2"/><rect class="c c16" x="770" y="98" rx="2" ry="2"/><rect class="c" x="786" y="2" rx="2" ry="2"/><rect class="c" x="786" y="18" rx="2" ry="2"/><rect class="c" x="786" y="34" rx="2" ry="2"/><rect class="c" x="786" y="50" rx="2" ry="2"/><rect class="c c17" x="786" y="66" rx="2" ry="2"/><rect class="c" x="786" y="82" rx="2" ry="2"/><rect class="c" x="786" y="98" rx="2" ry="2"/><rect class="c" x="802" y="2" rx="2" ry="2"/><rect class="c" x="802" y="18" rx="2" ry="2"/><rect class="c" x="802" y="34" rx="2" ry="2"/><rect class="c" x="802" y="50" rx="2" ry="2"/><rect class="c" x="802" y="66" rx="2" ry="2"/><rect class="c" x="802" y="82" rx="2" ry="2"/><rect class="c" x="802" y="98" rx="2" ry="2"/><rect class="c" x="818" y="2" rx="2" ry="2"/><rect class="c" x="818" y="18" rx="2" ry="2"/><rect class="c" x="818" y="34" rx="2" ry="2"/><rect class="c" x="818" y="50" rx="2" ry="2"/><rect class="c" x="818" y="66" rx="2" ry="2"/><rect class="c" x="818" y="82" rx="2" ry="2"/><rect class="c" x="818" y="98" rx="2" ry="2"/><rect class="c" x="834" y="2" rx="2" ry="2"/><rect class="c" x="834" y="18" rx="2" ry="2"/><rect class="c" x="834" y="34" rx="2" ry="2"/><rect class="c" x="834" y="50" rx="2" ry="2"/><rect class="c" x="834" y="66" rx="2" ry="2"/><rect class="u u0" height="12" width="405.3" x="0.0" y="144"/><rect class="u u1" height="12" width="19.9" x="404.7" y="144"/><rect class="u u2" height="12" width="19.9" x="424.0" y="144"/><rect class="u u3" height="12" width="19.9" x="443.3" y="144"/><rect class="u u4" height="12" width="19.9" x="462.5" y="144"/><rect class="u u5" height="12" width="174.1" x="481.8" y="144"/><rect class="u u6" height="12" width="116.2" x="655.3" y="144"/><rect class="u u7" height="12" width="77.7" x="770.9" y="144"/><rect class="s s0" x="0.8" y="0.8" width="14.4" height="14.4" rx="4.5" ry="4.5"/><rect class="s s1" x="1.8" y="1.8" width="12.3" height="12.3" rx="4.1" ry="4.1"/><rect class="s s2" x="2.6" y="2.6" width="10.8" height="10.8" rx="3.6" ry="3.6"/><rect class="s s3" x="3.0" y="3.0" width="9.9" height="9.9" rx="3.3" ry="3.3"/></svg>